<svg xmlns="http://www.w3.org/2000/svg" xmlns:xlink="http://www.w3.org/1999/xlink" viewBox="0 0 512 512"><defs><style>.cls-1{isolation:isolate;}.cls-2{fill:url(#linear-gradient);}.cls-3{fill:url(#linear-gradient-2);}.cls-4{fill:url(#linear-gradient-3);}.cls-5{fill:#fff;}.cls-6,.cls-70{opacity:0.8;}.cls-6{fill:url(#linear-gradient-4);}.cls-7{fill:url(#linear-gradient-5);}.cls-101,.cls-8,.cls-89{opacity:0.2;}.cls-8{fill:url(#linear-gradient-6);}.cls-9{opacity:0.27;fill:url(#linear-gradient-7);}.cls-10{opacity:0.35;fill:url(#linear-gradient-8);}.cls-11{opacity:0.42;fill:url(#linear-gradient-9);}.cls-12{opacity:0.49;fill:url(#linear-gradient-10);}.cls-13{opacity:0.56;fill:url(#linear-gradient-11);}.cls-14{opacity:0.64;fill:url(#linear-gradient-12);}.cls-15{opacity:0.71;fill:url(#linear-gradient-13);}.cls-16{opacity:0.78;fill:url(#linear-gradient-14);}.cls-17{opacity:0.85;fill:url(#linear-gradient-15);}.cls-18{opacity:0.93;fill:url(#linear-gradient-16);}.cls-19{fill:url(#New_Gradient_Swatch_copy_7);}.cls-20{fill:url(#linear-gradient-17);}.cls-21,.cls-69,.cls-84,.cls-92{mix-blend-mode:screen;}.cls-21{opacity:0.3;fill:url(#linear-gradient-18);}.cls-22,.cls-28,.cls-74,.cls-79,.cls-89,.cls-91{mix-blend-mode:multiply;}.cls-22{fill:url(#linear-gradient-19);}.cls-23{fill:url(#New_Gradient_Swatch_copy_25);}.cls-24{fill:url(#linear-gradient-20);}.cls-25{fill:url(#linear-gradient-21);}.cls-26{fill:url(#New_Gradient_Swatch_copy_25-2);}.cls-27{fill:url(#linear-gradient-22);}.cls-28{fill:#f1f2f2;}.cls-29{fill:url(#linear-gradient-23);}.cls-30{fill:url(#linear-gradient-24);}.cls-31{fill:url(#linear-gradient-25);}.cls-32{fill:url(#linear-gradient-26);}.cls-33{fill:url(#linear-gradient-27);}.cls-34{fill:url(#linear-gradient-28);}.cls-35{fill:url(#linear-gradient-29);}.cls-36{fill:url(#linear-gradient-30);}.cls-37{fill:url(#linear-gradient-31);}.cls-38{fill:url(#linear-gradient-32);}.cls-39{fill:url(#linear-gradient-33);}.cls-40{fill:url(#linear-gradient-34);}.cls-41{fill:url(#linear-gradient-35);}.cls-42{fill:url(#linear-gradient-36);}.cls-43{fill:url(#linear-gradient-37);}.cls-44{fill:url(#linear-gradient-38);}.cls-45{fill:url(#linear-gradient-39);}.cls-46{fill:url(#linear-gradient-40);}.cls-47{fill:url(#linear-gradient-41);}.cls-48{fill:url(#linear-gradient-42);}.cls-49{fill:url(#linear-gradient-43);}.cls-50{fill:url(#linear-gradient-44);}.cls-51{fill:url(#linear-gradient-45);}.cls-52{fill:url(#linear-gradient-46);}.cls-53{fill:url(#linear-gradient-47);}.cls-54{fill:url(#linear-gradient-48);}.cls-55{fill:url(#linear-gradient-49);}.cls-56{fill:url(#linear-gradient-50);}.cls-57{fill:url(#linear-gradient-51);}.cls-58{fill:url(#linear-gradient-52);}.cls-59{fill:url(#linear-gradient-53);}.cls-60{fill:url(#linear-gradient-54);}.cls-61{fill:url(#linear-gradient-55);}.cls-62{fill:url(#linear-gradient-56);}.cls-63{fill:url(#linear-gradient-57);}.cls-64{fill:url(#linear-gradient-58);}.cls-65{fill:url(#linear-gradient-59);}.cls-66{fill:url(#linear-gradient-60);}.cls-67{fill:url(#linear-gradient-61);}.cls-68{fill:url(#linear-gradient-62);}.cls-69{fill:url(#linear-gradient-63);}.cls-71{fill:url(#New_Gradient_Swatch_copy_9);}.cls-72{fill:url(#New_Gradient_Swatch_copy_9-2);}.cls-73{fill:url(#New_Gradient_Swatch_copy_9-3);}.cls-74{fill:url(#linear-gradient-64);}.cls-75{fill:url(#New_Gradient_Swatch_copy_8);}.cls-100,.cls-76,.cls-81,.cls-86,.cls-87{mix-blend-mode:color-dodge;}.cls-77{fill:url(#Radial_Gradient_1);}.cls-78{fill:url(#Radial_Gradient_1-2);}.cls-79{fill:#e6cfc9;}.cls-80{fill:url(#New_Gradient_Swatch_copy_8-2);}.cls-81{fill:url(#Radial_Gradient_1-3);}.cls-82{fill:url(#linear-gradient-65);}.cls-83{fill:url(#linear-gradient-66);}.cls-84{fill:url(#radial-gradient);}.cls-85{fill:url(#linear-gradient-67);}.cls-86{fill:url(#radial-gradient-2);}.cls-87{fill:url(#radial-gradient-3);}.cls-88{fill:url(#linear-gradient-68);}.cls-89{fill:url(#radial-gradient-4);}.cls-90{fill:url(#New_Gradient_Swatch_copy_10);}.cls-91{fill:#eca40d;opacity:0.7;}.cls-92{fill:url(#linear-gradient-69);}.cls-93{fill:url(#New_Gradient_Swatch_copy_10-2);}.cls-94{fill:url(#New_Gradient_Swatch_copy_10-3);}.cls-95{fill:#8b8c9e;}.cls-96{fill:url(#New_Gradient_Swatch_copy_9-4);}.cls-97{fill:url(#New_Gradient_Swatch_copy_9-5);}.cls-98{fill:url(#Radial_Gradient_1-4);}.cls-99{fill:url(#Radial_Gradient_1-5);}.cls-100{fill:url(#radial-gradient-5);}.cls-102,.cls-103,.cls-104,.cls-105,.cls-106,.cls-107,.cls-108,.cls-109,.cls-110,.cls-111,.cls-112,.cls-113{fill:#010101;}.cls-102{opacity:0;}.cls-103{opacity:0.09;}.cls-104{opacity:0.18;}.cls-105{opacity:0.27;}.cls-106{opacity:0.36;}.cls-107{opacity:0.45;}.cls-108{opacity:0.55;}.cls-109{opacity:0.64;}.cls-110{opacity:0.73;}.cls-111{opacity:0.82;}.cls-112{opacity:0.91;}.cls-114{fill:url(#New_Gradient_Swatch_copy_36);}.cls-115{fill:url(#New_Gradient_Swatch_copy_36-2);}.cls-116{fill:url(#New_Gradient_Swatch_copy_36-3);}.cls-117{fill:url(#New_Gradient_Swatch_copy_36-4);}.cls-118{fill:url(#New_Gradient_Swatch_copy_36-5);}</style><linearGradient id="linear-gradient" x1="47.44" y1="355.21" x2="436.29" y2="355.21" gradientUnits="userSpaceOnUse"><stop offset="0.06" stop-color="#9e79b5"/><stop offset="0.26" stop-color="#a07bb6"/><stop offset="0.35" stop-color="#a683bb"/><stop offset="0.43" stop-color="#b190c2"/><stop offset="0.49" stop-color="#c0a2cd"/><stop offset="0.51" stop-color="#c3a6cf"/><stop offset="0.52" stop-color="#ccb4d6"/><stop offset="0.53" stop-color="#dbc9e2"/><stop offset="0.55" stop-color="#efe8f2"/><stop offset="0.56" stop-color="#fff"/><stop offset="0.57" stop-color="#eadfee"/><stop offset="0.58" stop-color="#dbc7e1"/><stop offset="0.59" stop-color="#d1b8da"/><stop offset="0.6" stop-color="#ceb3d7"/><stop offset="0.66" stop-color="#af94c5"/><stop offset="0.72" stop-color="#977cb7"/><stop offset="0.77" stop-color="#886eaf"/><stop offset="0.81" stop-color="#8369ac"/><stop offset="1" stop-color="#ac86bc"/></linearGradient><linearGradient id="linear-gradient-2" x1="39.17" y1="345.03" x2="413.26" y2="345.03" gradientUnits="userSpaceOnUse"><stop offset="0" stop-color="#2e1d48"/><stop offset="1" stop-color="#4f3a8f"/></linearGradient><linearGradient id="linear-gradient-3" x1="43.35" y1="345.03" x2="409.08" y2="345.03" gradientUnits="userSpaceOnUse"><stop offset="0" stop-color="#3a235a"/><stop offset="1" stop-color="#523f92"/></linearGradient><linearGradient id="linear-gradient-4" x1="294.34" y1="200.55" x2="-2839.52" y2="1873.6" gradientTransform="matrix(0.87, 0.5, 0, 1.15, 34.19, -168.31)" gradientUnits="userSpaceOnUse"><stop offset="0.06" stop-color="#9e79b5"/><stop offset="0.27" stop-color="#a07bb6"/><stop offset="0.37" stop-color="#a683bb"/><stop offset="0.45" stop-color="#b190c2"/><stop offset="0.52" stop-color="#c0a2cd"/><stop offset="0.56" stop-color="#ceb3d7"/><stop offset="0.66" stop-color="#af94c5"/><stop offset="0.75" stop-color="#977cb7"/><stop offset="0.84" stop-color="#886eaf"/><stop offset="0.92" stop-color="#8369ac"/></linearGradient><linearGradient id="linear-gradient-5" x1="291.01" y1="201.99" x2="-2842.84" y2="1875.04" gradientTransform="matrix(0.87, 0.5, 0, 1.15, 34.19, -168.31)" xlink:href="#linear-gradient-3"/><linearGradient id="linear-gradient-6" x1="467.06" y1="164.27" x2="170.43" y2="251.51" gradientUnits="userSpaceOnUse"><stop offset="0" stop-color="#46328a"/><stop offset="0.52" stop-color="#523f92"/><stop offset="1" stop-color="#a7388d"/></linearGradient><linearGradient id="linear-gradient-7" x1="425.51" y1="127.55" x2="213.29" y2="299.35" gradientUnits="userSpaceOnUse"><stop offset="0" stop-color="#45398e"/><stop offset="0.04" stop-color="#463a8e"/><stop offset="0.52" stop-color="#514998"/><stop offset="1" stop-color="#a54b95"/></linearGradient><linearGradient id="linear-gradient-8" x1="374.72" y1="122.8" x2="273.12" y2="310.66" gradientUnits="userSpaceOnUse"><stop offset="0" stop-color="#434292"/><stop offset="0.04" stop-color="#444393"/><stop offset="0.5" stop-color="#50529e"/><stop offset="0.52" stop-color="#50539e"/><stop offset="1" stop-color="#a25d9f"/></linearGradient><linearGradient id="linear-gradient-9" x1="344.21" y1="70.11" x2="311.89" y2="388.1" gradientUnits="userSpaceOnUse"><stop offset="0" stop-color="#414b98"/><stop offset="0.04" stop-color="#424c98"/><stop offset="0.48" stop-color="#4e5ba3"/><stop offset="0.52" stop-color="#4f5da4"/><stop offset="1" stop-color="#9f6ca8"/></linearGradient><linearGradient id="linear-gradient-10" x1="285.31" y1="54.78" x2="395.46" y2="419.69" gradientUnits="userSpaceOnUse"><stop offset="0" stop-color="#3e549d"/><stop offset="0.04" stop-color="#3f549d"/><stop offset="0.46" stop-color="#4b63a8"/><stop offset="0.52" stop-color="#4d66aa"/><stop offset="1" stop-color="#9b7bb1"/></linearGradient><linearGradient id="linear-gradient-11" x1="232.28" y1="85.11" x2="478.8" y2="385.25" gradientUnits="userSpaceOnUse"><stop offset="0" stop-color="#3b5ca2"/><stop offset="0.04" stop-color="#3b5da2"/><stop offset="0.44" stop-color="#496cad"/><stop offset="0.52" stop-color="#4c70af"/><stop offset="1" stop-color="#9789ba"/></linearGradient><linearGradient id="linear-gradient-12" x1="214.54" y1="143.22" x2="514.59" y2="302.76" gradientUnits="userSpaceOnUse"><stop offset="0" stop-color="#3764a7"/><stop offset="0.04" stop-color="#3765a7"/><stop offset="0.42" stop-color="#4674b2"/><stop offset="0.52" stop-color="#4a79b5"/><stop offset="1" stop-color="#9296c1"/></linearGradient><linearGradient id="linear-gradient-13" x1="213.96" y1="194.07" x2="525.1" y2="223.47" gradientUnits="userSpaceOnUse"><stop offset="0" stop-color="#326cac"/><stop offset="0.04" stop-color="#336dac"/><stop offset="0.4" stop-color="#427cb6"/><stop offset="0.52" stop-color="#4882ba"/><stop offset="1" stop-color="#8da1c9"/></linearGradient><linearGradient id="linear-gradient-14" x1="220.06" y1="239.54" x2="524.52" y2="145.27" gradientUnits="userSpaceOnUse"><stop offset="0" stop-color="#2d74b1"/><stop offset="0.04" stop-color="#2d75b1"/><stop offset="0.34" stop-color="#3c82b9"/><stop offset="0.52" stop-color="#478bbf"/><stop offset="1" stop-color="#87accf"/></linearGradient><linearGradient id="linear-gradient-15" x1="255.13" y1="268.55" x2="470.23" y2="89.3" gradientUnits="userSpaceOnUse"><stop offset="0" stop-color="#277cb5"/><stop offset="0.04" stop-color="#277db5"/><stop offset="0.31" stop-color="#3689bd"/><stop offset="0.52" stop-color="#4594c4"/><stop offset="1" stop-color="#80b6d4"/></linearGradient><linearGradient id="linear-gradient-16" x1="295.44" y1="273.66" x2="399.86" y2="73.87" gradientUnits="userSpaceOnUse"><stop offset="0" stop-color="#1f84ba"/><stop offset="0.04" stop-color="#1f84ba"/><stop offset="0.27" stop-color="#2e8fc0"/><stop offset="0.52" stop-color="#439dc8"/><stop offset="1" stop-color="#79bfd9"/></linearGradient><linearGradient id="New_Gradient_Swatch_copy_7" x1="321.63" y1="315.22" x2="350.61" y2="-16.61" gradientUnits="userSpaceOnUse"><stop offset="0.04" stop-color="#148cbe"/><stop offset="0.25" stop-color="#2396c3"/><stop offset="0.67" stop-color="#4cb0d1"/><stop offset="1" stop-color="#70c8de"/></linearGradient><linearGradient id="linear-gradient-17" x1="-404.41" y1="606.83" x2="-574.92" y2="477.94" gradientTransform="matrix(0.87, 0.5, -1.5, 0.29, 1485.29, 415.89)" gradientUnits="userSpaceOnUse"><stop offset="0" stop-color="#3a235a"/><stop offset="1" stop-color="#211f47"/><stop offset="1" stop-color="#202046"/></linearGradient><linearGradient id="linear-gradient-18" x1="198.05" y1="259.07" x2="293.57" y2="408.97" gradientUnits="userSpaceOnUse"><stop offset="0.06" stop-color="#9e79b5"/><stop offset="0.25" stop-color="#a07bb6"/><stop offset="0.35" stop-color="#a683bb"/><stop offset="0.42" stop-color="#b090c2"/><stop offset="0.49" stop-color="#bfa3cd"/><stop offset="0.54" stop-color="#d3bbdb"/><stop offset="0.56" stop-color="#dbc5e1"/><stop offset="0.59" stop-color="#cdb6d9"/><stop offset="0.69" stop-color="#ad95c5"/><stop offset="0.77" stop-color="#967db7"/><stop offset="0.85" stop-color="#886eaf"/><stop offset="0.92" stop-color="#8369ac"/></linearGradient><linearGradient id="linear-gradient-19" x1="366.32" y1="110.94" x2="287.11" y2="305.83" gradientUnits="userSpaceOnUse"><stop offset="0" stop-color="#fff"/><stop offset="1" stop-color="#a7388d"/></linearGradient><linearGradient id="New_Gradient_Swatch_copy_25" x1="388.84" y1="184.25" x2="484.65" y2="165.55" gradientUnits="userSpaceOnUse"><stop offset="0" stop-color="#271e4a"/><stop offset="1" stop-color="#442680"/></linearGradient><linearGradient id="linear-gradient-20" x1="287" y1="125" x2="330.87" y2="4.21" gradientUnits="userSpaceOnUse"><stop offset="0.01" stop-color="#52328a"/><stop offset="0.42" stop-color="#5e6dab"/><stop offset="1" stop-color="#70c8de"/></linearGradient><linearGradient id="linear-gradient-21" x1="5136.42" y1="251.17" x2="5580.09" y2="151.71" gradientTransform="matrix(-1, 0, 0, 1, 5643.37, 0)" xlink:href="#linear-gradient-3"/><linearGradient id="New_Gradient_Swatch_copy_25-2" x1="319.48" y1="348.62" x2="229.71" y2="-103.12" xlink:href="#New_Gradient_Swatch_copy_25"/><linearGradient id="linear-gradient-22" x1="404.29" y1="187.29" x2="181.83" y2="26.62" gradientUnits="userSpaceOnUse"><stop offset="0.03" stop-color="#603f92"/><stop offset="0.34" stop-color="#5963ac"/><stop offset="1" stop-color="#48b8ea"/></linearGradient><linearGradient id="linear-gradient-23" x1="370.9" y1="207.94" x2="373.38" y2="174.6" gradientUnits="userSpaceOnUse"><stop offset="0" stop-color="#603f92"/><stop offset="0.23" stop-color="#8061a6"/><stop offset="0.58" stop-color="#aa8dc1"/><stop offset="0.84" stop-color="#c4a9d1"/><stop offset="1" stop-color="#ceb3d7"/></linearGradient><linearGradient id="linear-gradient-24" x1="357.46" y1="254.79" x2="374.65" y2="187.49" xlink:href="#linear-gradient-23"/><linearGradient id="linear-gradient-25" x1="332.78" y1="185.85" x2="335.26" y2="152.52" xlink:href="#linear-gradient-23"/><linearGradient id="linear-gradient-26" x1="319.34" y1="232.71" x2="336.53" y2="165.4" xlink:href="#linear-gradient-23"/><linearGradient id="linear-gradient-27" x1="294.67" y1="163.77" x2="297.14" y2="130.43" xlink:href="#linear-gradient-23"/><linearGradient id="linear-gradient-28" x1="281.22" y1="210.63" x2="298.41" y2="143.32" xlink:href="#linear-gradient-23"/><linearGradient id="linear-gradient-29" x1="256.55" y1="141.69" x2="259.02" y2="108.35" xlink:href="#linear-gradient-23"/><linearGradient id="linear-gradient-30" x1="243.1" y1="188.55" x2="260.29" y2="121.24" xlink:href="#linear-gradient-23"/><linearGradient id="linear-gradient-31" x1="218.43" y1="119.61" x2="220.91" y2="86.27" xlink:href="#linear-gradient-23"/><linearGradient id="linear-gradient-32" x1="204.98" y1="166.46" x2="222.17" y2="99.16" xlink:href="#linear-gradient-23"/><linearGradient id="linear-gradient-33" x1="370.9" y1="315.55" x2="373.38" y2="282.21" xlink:href="#linear-gradient-23"/><linearGradient id="linear-gradient-34" x1="357.46" y1="362.4" x2="374.65" y2="295.1" xlink:href="#linear-gradient-23"/><linearGradient id="linear-gradient-35" x1="332.78" y1="293.46" x2="335.26" y2="260.13" xlink:href="#linear-gradient-23"/><linearGradient id="linear-gradient-36" x1="319.34" y1="340.32" x2="336.53" y2="273.01" xlink:href="#linear-gradient-23"/><linearGradient id="linear-gradient-37" x1="294.67" y1="271.38" x2="297.14" y2="238.04" xlink:href="#linear-gradient-23"/><linearGradient id="linear-gradient-38" x1="281.22" y1="318.24" x2="298.41" y2="250.93" xlink:href="#linear-gradient-23"/><linearGradient id="linear-gradient-39" x1="256.55" y1="249.3" x2="259.02" y2="215.96" xlink:href="#linear-gradient-23"/><linearGradient id="linear-gradient-40" x1="243.1" y1="296.16" x2="260.29" y2="228.85" xlink:href="#linear-gradient-23"/><linearGradient id="linear-gradient-41" x1="218.43" y1="227.22" x2="220.91" y2="193.88" xlink:href="#linear-gradient-23"/><linearGradient id="linear-gradient-42" x1="204.98" y1="274.07" x2="222.17" y2="206.77" xlink:href="#linear-gradient-23"/><linearGradient id="linear-gradient-43" x1="370.9" y1="279.44" x2="373.38" y2="246.1" xlink:href="#linear-gradient-23"/><linearGradient id="linear-gradient-44" x1="357.46" y1="326.3" x2="374.65" y2="258.99" xlink:href="#linear-gradient-23"/><linearGradient id="linear-gradient-45" x1="332.78" y1="257.36" x2="335.26" y2="224.02" xlink:href="#linear-gradient-23"/><linearGradient id="linear-gradient-46" x1="319.34" y1="304.22" x2="336.53" y2="236.91" xlink:href="#linear-gradient-23"/><linearGradient id="linear-gradient-47" x1="294.67" y1="235.28" x2="297.14" y2="201.94" xlink:href="#linear-gradient-23"/><linearGradient id="linear-gradient-48" x1="281.22" y1="282.13" x2="298.41" y2="214.83" xlink:href="#linear-gradient-23"/><linearGradient id="linear-gradient-49" x1="256.55" y1="213.19" x2="259.02" y2="179.86" xlink:href="#linear-gradient-23"/><linearGradient id="linear-gradient-50" x1="243.1" y1="260.05" x2="260.29" y2="192.74" xlink:href="#linear-gradient-23"/><linearGradient id="linear-gradient-51" x1="218.43" y1="191.11" x2="220.91" y2="157.77" xlink:href="#linear-gradient-23"/><linearGradient id="linear-gradient-52" x1="204.98" y1="237.97" x2="222.17" y2="170.66" xlink:href="#linear-gradient-23"/><linearGradient id="linear-gradient-53" x1="370.9" y1="244.04" x2="373.38" y2="210.7" xlink:href="#linear-gradient-23"/><linearGradient id="linear-gradient-54" x1="357.46" y1="290.9" x2="374.65" y2="223.59" xlink:href="#linear-gradient-23"/><linearGradient id="linear-gradient-55" x1="332.78" y1="221.96" x2="335.26" y2="188.62" xlink:href="#linear-gradient-23"/><linearGradient id="linear-gradient-56" x1="319.34" y1="268.81" x2="336.53" y2="201.51" xlink:href="#linear-gradient-23"/><linearGradient id="linear-gradient-57" x1="294.67" y1="199.87" x2="297.14" y2="166.54" xlink:href="#linear-gradient-23"/><linearGradient id="linear-gradient-58" x1="281.22" y1="246.73" x2="298.41" y2="179.43" xlink:href="#linear-gradient-23"/><linearGradient id="linear-gradient-59" x1="256.55" y1="177.79" x2="259.02" y2="144.45" xlink:href="#linear-gradient-23"/><linearGradient id="linear-gradient-60" x1="243.1" y1="224.65" x2="260.29" y2="157.34" xlink:href="#linear-gradient-23"/><linearGradient id="linear-gradient-61" x1="218.43" y1="155.71" x2="220.91" y2="122.37" xlink:href="#linear-gradient-23"/><linearGradient id="linear-gradient-62" x1="204.98" y1="202.57" x2="222.17" y2="135.26" xlink:href="#linear-gradient-23"/><linearGradient id="linear-gradient-63" x1="342.65" y1="200.41" x2="387.67" y2="147.89" gradientUnits="userSpaceOnUse"><stop offset="0" stop-color="#6dc4cc"/><stop offset="0.03" stop-color="#65b6be"/><stop offset="0.17" stop-color="#4b878c"/><stop offset="0.3" stop-color="#345e61"/><stop offset="0.44" stop-color="#223c3f"/><stop offset="0.57" stop-color="#132224"/><stop offset="0.71" stop-color="#091010"/><stop offset="0.85" stop-color="#030505"/><stop offset="1" stop-color="#010101"/></linearGradient><linearGradient id="New_Gradient_Swatch_copy_9" x1="422.95" y1="232.43" x2="466.57" y2="219.36" gradientUnits="userSpaceOnUse"><stop offset="0.04" stop-color="#873a8e"/><stop offset="0.28" stop-color="#964493"/><stop offset="0.75" stop-color="#bf5fa1"/><stop offset="1" stop-color="#d66fa9"/></linearGradient><linearGradient id="New_Gradient_Swatch_copy_9-2" x1="117.2" y1="238.1" x2="579.94" y2="134.37" xlink:href="#New_Gradient_Swatch_copy_9"/><linearGradient id="New_Gradient_Swatch_copy_9-3" x1="366.98" y1="130.72" x2="346.61" y2="169.55" xlink:href="#New_Gradient_Swatch_copy_9"/><linearGradient id="linear-gradient-64" x1="287.88" y1="152.92" x2="195.85" y2="284.32" gradientUnits="userSpaceOnUse"><stop offset="0" stop-color="#fff"/><stop offset="0.27" stop-color="#f4eef4"/><stop offset="0.79" stop-color="#d8c4d7"/><stop offset="1" stop-color="#ccb1cb"/></linearGradient><linearGradient id="New_Gradient_Swatch_copy_8" x1="203.76" y1="225.71" x2="217.4" y2="42.31" gradientUnits="userSpaceOnUse"><stop offset="0.04" stop-color="#f5a78e"/><stop offset="0.31" stop-color="#f7b694"/><stop offset="0.83" stop-color="#fcdfa3"/><stop offset="1" stop-color="#feeda8"/></linearGradient><radialGradient id="Radial_Gradient_1" cx="168.57" cy="148.73" r="27.8" gradientUnits="userSpaceOnUse"><stop offset="0" stop-color="#fff"/><stop offset="1"/></radialGradient><radialGradient id="Radial_Gradient_1-2" cx="225.06" cy="209.27" r="50.11" xlink:href="#Radial_Gradient_1"/><linearGradient id="New_Gradient_Swatch_copy_8-2" x1="129.62" y1="494.25" x2="229.12" y2="104.71" xlink:href="#New_Gradient_Swatch_copy_8"/><radialGradient id="Radial_Gradient_1-3" cx="175.91" cy="237.39" r="80.7" xlink:href="#Radial_Gradient_1"/><linearGradient id="linear-gradient-65" x1="174.04" y1="184.55" x2="220.05" y2="265.52" gradientUnits="userSpaceOnUse"><stop offset="0.04" stop-color="#f5aa91"/><stop offset="0.18" stop-color="#f8b997"/><stop offset="0.46" stop-color="#fee2a7"/><stop offset="0.48" stop-color="#ffe5a8"/><stop offset="0.74" stop-color="#f5aa91"/></linearGradient><linearGradient id="linear-gradient-66" x1="188.65" y1="202.97" x2="234.22" y2="259.1" gradientUnits="userSpaceOnUse"><stop offset="0.04" stop-color="#f5aa91"/><stop offset="0.28" stop-color="#f8b997"/><stop offset="0.75" stop-color="#fee2a7"/><stop offset="0.78" stop-color="#ffe5a8"/><stop offset="0.87" stop-color="#f5aa91"/></linearGradient><radialGradient id="radial-gradient" cx="215.02" cy="223.93" r="51.5" gradientUnits="userSpaceOnUse"><stop offset="0.36" stop-color="#fff"/><stop offset="0.43" stop-color="#e1e1e1"/><stop offset="0.64" stop-color="#828282"/><stop offset="0.81" stop-color="#3c3c3c"/><stop offset="0.94" stop-color="#111"/><stop offset="1"/></radialGradient><linearGradient id="linear-gradient-67" x1="189.57" y1="189.56" x2="199.53" y2="384.38" gradientUnits="userSpaceOnUse"><stop offset="0" stop-color="#fff3a8"/><stop offset="0.11" stop-color="#fde9a2"/><stop offset="0.41" stop-color="#f9d193"/><stop offset="0.69" stop-color="#f6c28a"/><stop offset="0.92" stop-color="#f5bd87"/></linearGradient><radialGradient id="radial-gradient-2" cx="212.11" cy="280.46" r="42.19" gradientUnits="userSpaceOnUse"><stop offset="0" stop-color="#93412e"/><stop offset="1" stop-color="#010101"/></radialGradient><radialGradient id="radial-gradient-3" cx="217.24" cy="280.6" r="21.45" gradientUnits="userSpaceOnUse"><stop offset="0" stop-color="#d66fa9"/><stop offset="1" stop-color="#010101"/></radialGradient><linearGradient id="linear-gradient-68" x1="184.4" y1="158.64" x2="204.36" y2="336.98" xlink:href="#New_Gradient_Swatch_copy_8"/><radialGradient id="radial-gradient-4" cx="173.81" cy="-3010.07" r="29.48" gradientTransform="translate(0 5252.89) scale(1 1.66)" gradientUnits="userSpaceOnUse"><stop offset="0.14" stop-color="#2c2865"/><stop offset="0.22" stop-color="#332f6a"/><stop offset="0.35" stop-color="#474378"/><stop offset="0.5" stop-color="#676490"/><stop offset="0.67" stop-color="#9391b0"/><stop offset="0.85" stop-color="#cccbda"/><stop offset="1" stop-color="#fff"/></radialGradient><linearGradient id="New_Gradient_Swatch_copy_10" x1="202.89" y1="243.3" x2="179.31" y2="227.36" gradientUnits="userSpaceOnUse"><stop offset="0.04" stop-color="#9d9eb3"/><stop offset="0.58" stop-color="#d4d1d8"/><stop offset="1" stop-color="#efebf2"/></linearGradient><linearGradient id="linear-gradient-69" x1="152.49" y1="253.45" x2="149.65" y2="179.03" xlink:href="#linear-gradient-63"/><linearGradient id="New_Gradient_Swatch_copy_10-2" x1="56.93" y1="294.64" x2="215.88" y2="239.74" xlink:href="#New_Gradient_Swatch_copy_10"/><linearGradient id="New_Gradient_Swatch_copy_10-3" x1="120.92" y1="281.96" x2="324.11" y2="133.66" xlink:href="#New_Gradient_Swatch_copy_10"/><linearGradient id="New_Gradient_Swatch_copy_9-4" x1="139.65" y1="335.98" x2="62.81" y2="276.56" xlink:href="#New_Gradient_Swatch_copy_9"/><linearGradient id="New_Gradient_Swatch_copy_9-5" x1="73.61" y1="342.24" x2="119.24" y2="208.9" xlink:href="#New_Gradient_Swatch_copy_9"/><radialGradient id="Radial_Gradient_1-4" cx="99.72" cy="311.76" r="14.38" xlink:href="#Radial_Gradient_1"/><radialGradient id="Radial_Gradient_1-5" cx="83.19" cy="277.62" r="29.5" xlink:href="#Radial_Gradient_1"/><radialGradient id="radial-gradient-5" cx="72.02" cy="275.91" r="16.35" gradientUnits="userSpaceOnUse"><stop offset="0" stop-color="#8470b0"/><stop offset="0.11" stop-color="#69598b"/><stop offset="0.25" stop-color="#493e61"/><stop offset="0.39" stop-color="#2f283f"/><stop offset="0.54" stop-color="#1b1724"/><stop offset="0.69" stop-color="#0c0b10"/><stop offset="0.84" stop-color="#040305"/><stop offset="1" stop-color="#010101"/></radialGradient><linearGradient id="New_Gradient_Swatch_copy_36" x1="-300.54" y1="-769.97" x2="-235.48" y2="-815.48" gradientTransform="matrix(0.87, -0.5, 0, 1.15, 361.33, 1046.45)" gradientUnits="userSpaceOnUse"><stop offset="0.1" stop-color="#442680"/><stop offset="1" stop-color="#603f92"/></linearGradient><linearGradient id="New_Gradient_Swatch_copy_36-2" x1="-296.74" y1="-764.55" x2="-231.69" y2="-810.05" xlink:href="#New_Gradient_Swatch_copy_36"/><linearGradient id="New_Gradient_Swatch_copy_36-3" x1="-292.95" y1="-759.12" x2="-227.89" y2="-804.62" xlink:href="#New_Gradient_Swatch_copy_36"/><linearGradient id="New_Gradient_Swatch_copy_36-4" x1="-289.15" y1="-753.69" x2="-224.09" y2="-799.2" xlink:href="#New_Gradient_Swatch_copy_36"/><linearGradient id="New_Gradient_Swatch_copy_36-5" x1="-285.35" y1="-748.26" x2="-220.3" y2="-793.77" xlink:href="#New_Gradient_Swatch_copy_36"/></defs><g class="cls-1"><g id="Layer_1" data-name="Layer 1"><path class="cls-2" d="M254.22,460,44.75,339.05c-3.68-2.13-5.52-5-5.58-7.95V320.73c.07-3.62,2.74,2.66,7.9-.31l118.87-68.64c9.56-5.51,24-6.11,32.27-1.33L407.68,371.38c2.76,1.59,4.76-5.17,5.48-3,.24.72.09,10.21.1,10.95.08,3.71-2.6,7.64-7.9,10.7L286.49,458.64C276.94,464.16,262.49,464.76,254.22,460Z"/><path class="cls-3" d="M254.22,449.8,44.75,328.86c-8.27-4.77-7.23-13.11,2.32-18.63L165.94,241.6c9.56-5.52,24-6.11,32.27-1.34L407.68,361.2c8.27,4.77,7.23,13.11-2.32,18.63L286.49,448.46C276.94,454,262.49,454.57,254.22,449.8Z"/><path class="cls-4" d="M268.23,448.84c-4.71,0-9-.95-11.92-2.67L46.84,325.24c-1.3-.75-3.49-2.33-3.49-4.47s2.17-4.81,5.81-6.91L168,245.22a33.26,33.26,0,0,1,16.16-4,24.51,24.51,0,0,1,11.92,2.66L405.59,364.82c1.3.75,3.49,2.33,3.49,4.47s-2.17,4.81-5.81,6.91L284.39,444.84A33.26,33.26,0,0,1,268.23,448.84Z"/><path class="cls-5" d="M405.36,378.1,286.49,446.73c-9.55,5.51-24,6.11-32.27,1.34L44.75,327.13c-3.43-2-5.23-4.58-5.52-7.33-.43,3.38,1.38,6.67,5.52,9.06L254.22,449.8c8.27,4.77,22.72,4.17,32.27-1.34l118.87-68.63c5.59-3.23,8.24-7.42,7.84-11.3C412.77,371.89,410.13,375.35,405.36,378.1Z"/><path class="cls-6" d="M405.09,356.54l-206-119a17.23,17.23,0,0,1-8-19.71L236,62.63a17.26,17.26,0,0,1,25.2-10.17l206,119a17.23,17.23,0,0,1,7.95,19.71L430.29,346.37A17.25,17.25,0,0,1,405.09,356.54Z"/><path class="cls-7" d="M402.21,356.54l-206-119a17.25,17.25,0,0,1-7.95-19.71L233.12,62.63a17.25,17.25,0,0,1,25.2-10.17l206,119a17.25,17.25,0,0,1,8,19.71L427.41,346.37A17.25,17.25,0,0,1,402.21,356.54Z"/><path class="cls-8" d="M410.81,353.09a11.39,11.39,0,0,1-5.72-1.54l-206-119a11.47,11.47,0,0,1-5.3-13.12L238.66,64.22a11.56,11.56,0,0,1,11.06-8.31,11.27,11.27,0,0,1,5.72,1.55l206,118.94a11.46,11.46,0,0,1,5.29,13.12L421.87,344.78A11.56,11.56,0,0,1,410.81,353.09Z"/><path class="cls-9" d="M410.59,352.69a11.28,11.28,0,0,1-5.69-1.54L199.62,232.63a11.41,11.41,0,0,1-5.27-13.07L239.09,64.77a11.53,11.53,0,0,1,11-8.29,11.2,11.2,0,0,1,5.7,1.55L461.08,176.54a11.42,11.42,0,0,1,5.28,13.08L421.61,344.41A11.51,11.51,0,0,1,410.59,352.69Z"/><path class="cls-10" d="M410.38,352.29a11.34,11.34,0,0,1-5.68-1.53L200.17,232.67a11.39,11.39,0,0,1-5.26-13L239.52,65.32a11.48,11.48,0,0,1,11-8.26,11.25,11.25,0,0,1,5.68,1.54L460.71,176.68a11.39,11.39,0,0,1,5.26,13L421.36,344A11.48,11.48,0,0,1,410.38,352.29Z"/><path class="cls-11" d="M410.16,351.89a11.16,11.16,0,0,1-5.66-1.53L200.71,232.7a11.35,11.35,0,0,1-5.24-13L240,65.86a11.42,11.42,0,0,1,10.94-8.22,11.16,11.16,0,0,1,5.66,1.53L460.34,176.83a11.35,11.35,0,0,1,5.24,13L421.1,343.66A11.42,11.42,0,0,1,410.16,351.89Z"/><path class="cls-12" d="M409.94,351.49a11.15,11.15,0,0,1-5.63-1.52l-203-117.24A11.29,11.29,0,0,1,196,219.8L240.38,66.41a11.39,11.39,0,0,1,10.9-8.2,11.19,11.19,0,0,1,5.64,1.53L460,177a11.3,11.3,0,0,1,5.22,12.93L420.84,343.29A11.39,11.39,0,0,1,409.94,351.49Z"/><path class="cls-13" d="M409.72,351.09a11.1,11.1,0,0,1-5.61-1.52L201.8,232.77a11.26,11.26,0,0,1-5.2-12.89L240.81,67a11.35,11.35,0,0,1,10.86-8.17,11,11,0,0,1,5.61,1.52l202.31,116.8a11.26,11.26,0,0,1,5.2,12.89l-44.2,152.92A11.36,11.36,0,0,1,409.72,351.09Z"/><path class="cls-14" d="M409.51,350.69a11,11,0,0,1-5.6-1.52L202.34,232.8A11.21,11.21,0,0,1,197.17,220L241.24,67.5a11.3,11.3,0,0,1,10.82-8.13,11.09,11.09,0,0,1,5.59,1.51L459.22,177.26a11.21,11.21,0,0,1,5.18,12.83L420.33,342.55A11.31,11.31,0,0,1,409.51,350.69Z"/><path class="cls-15" d="M409.29,350.29a11,11,0,0,1-5.57-1.51L202.89,232.83A11.16,11.16,0,0,1,197.73,220l43.94-152a11.27,11.27,0,0,1,10.78-8.11A11,11,0,0,1,258,61.45l200.83,116A11.18,11.18,0,0,1,464,190.19l-43.94,152A11.27,11.27,0,0,1,409.29,350.29Z"/><path class="cls-16" d="M409.07,349.89a11,11,0,0,1-5.55-1.51L203.43,232.86a11.13,11.13,0,0,1-5.14-12.74L242.1,68.6a11.22,11.22,0,0,1,10.74-8.08,11,11,0,0,1,5.55,1.5L458.48,177.54a11.14,11.14,0,0,1,5.14,12.75L419.81,341.81A11.21,11.21,0,0,1,409.07,349.89Z"/><path class="cls-17" d="M408.85,349.49a11,11,0,0,1-5.53-1.5L204,232.9a11.09,11.09,0,0,1-5.12-12.7L242.53,69.14a11.17,11.17,0,0,1,10.7-8,11,11,0,0,1,5.53,1.49L458.1,177.68a11.1,11.1,0,0,1,5.13,12.7L419.56,341.44A11.2,11.2,0,0,1,408.85,349.49Z"/><path class="cls-18" d="M408.64,349.09a10.87,10.87,0,0,1-5.51-1.5L204.52,232.93a11.06,11.06,0,0,1-5.1-12.65L243,69.69a11.13,11.13,0,0,1,10.66-8,10.88,10.88,0,0,1,5.51,1.49l198.6,114.67a11,11,0,0,1,5.11,12.65L419.3,341.07A11.14,11.14,0,0,1,408.64,349.09Z"/><path class="cls-19" d="M408.42,348.69a10.91,10.91,0,0,1-5.49-1.49L205.07,233a11,11,0,0,1-5.09-12.6L243.39,70.24a11.09,11.09,0,0,1,10.62-8,10.84,10.84,0,0,1,5.49,1.49L457.36,178a11,11,0,0,1,5.09,12.6L419,340.7A11.1,11.1,0,0,1,408.42,348.69Z"/><path class="cls-5" d="M464.34,171.41l-206-118.95a17.16,17.16,0,0,0-11.81-2A17.15,17.15,0,0,1,257,52.65l206,119a17.25,17.25,0,0,1,8,19.71L426.07,346.56a17.21,17.21,0,0,1-13.39,12.17,17.21,17.21,0,0,0,14.73-12.36l44.88-155.25A17.25,17.25,0,0,0,464.34,171.41Z"/><path class="cls-20" d="M291.44,405.25l-170.1-98.2c-3.4-2-3-5.41,1-7.68l63.86-36.87c3.93-2.27,9.88-2.51,13.29-.55l170.09,98.21c3.41,2,3,5.4-1,7.67L304.73,404.7C300.79,407,294.85,407.22,291.44,405.25Z"/><path class="cls-21" d="M189.88,269.68l10.9,6.29a5.53,5.53,0,0,0,5,0c1.37-.79,1.37-2.09,0-2.89l-10.9-6.29a5.51,5.51,0,0,0-5,0C188.49,267.59,188.5,268.88,189.88,269.68Zm18.67,10.77,5.16,3a5.51,5.51,0,0,0,5,0c1.38-.79,1.37-2.09,0-2.89l-5.17-3a5.54,5.54,0,0,0-5,0C207.15,278.36,207.16,279.65,208.55,280.45Zm12.92,7.47,5.16,3a5.56,5.56,0,0,0,5,0c1.38-.8,1.37-2.09,0-2.89l-5.16-3a5.51,5.51,0,0,0-5,0C220.08,285.82,220.09,287.12,221.47,287.92Zm12.93,7.46,5.16,3a5.54,5.54,0,0,0,5,0c1.38-.8,1.37-2.09,0-2.89l-5.16-3a5.53,5.53,0,0,0-5,0C233,293.29,233,294.58,234.4,295.38Zm12.92,7.46,5.17,3a5.51,5.51,0,0,0,5,0c1.38-.79,1.37-2.09,0-2.89l-5.16-3a5.54,5.54,0,0,0-5,0C245.93,300.75,245.94,302,247.32,302.84Zm12.93,7.46,5.16,3a5.53,5.53,0,0,0,5,0c1.37-.79,1.37-2.08,0-2.88l-5.16-3a5.53,5.53,0,0,0-5,0C258.86,308.21,258.86,309.5,260.25,310.3Zm12.92,7.47,5.17,3a5.54,5.54,0,0,0,5,0c1.38-.8,1.37-2.09,0-2.89l-5.17-3a5.51,5.51,0,0,0-5,0C271.78,315.67,271.79,317,273.17,317.77Zm12.93,7.46,5.16,3a5.56,5.56,0,0,0,5,0c1.37-.8,1.37-2.09,0-2.89l-5.16-3a5.56,5.56,0,0,0-5,0C284.71,323.14,284.71,324.43,286.1,325.23ZM299,332.69l5.16,3a5.51,5.51,0,0,0,5,0c1.38-.79,1.37-2.09,0-2.89l-5.17-3a5.54,5.54,0,0,0-5,0C297.63,330.6,297.64,331.89,299,332.69ZM312,340.15l5.16,3a5.53,5.53,0,0,0,5,0c1.38-.79,1.37-2.08,0-2.88l-5.16-3a5.51,5.51,0,0,0-5,0C310.56,338.06,310.56,339.35,312,340.15Zm12.93,7.47,5.16,3a5.54,5.54,0,0,0,5,0c1.38-.8,1.37-2.09,0-2.89l-5.17-3a5.51,5.51,0,0,0-5,0C323.48,345.52,323.49,346.82,324.88,347.62Zm12.92,7.46,5.17,3a5.51,5.51,0,0,0,5,0c1.38-.8,1.37-2.09,0-2.89l-5.16-3a5.54,5.54,0,0,0-5,0C336.41,353,336.42,354.28,337.8,355.08ZM351,362.7l5.16,3a5.54,5.54,0,0,0,5,0c1.38-.8,1.37-2.09,0-2.89l-5.16-3a5.53,5.53,0,0,0-5,0C349.6,360.6,349.61,361.9,351,362.7ZM178.26,276.79l4.47,2.58a6.27,6.27,0,0,0,5.69,0l4.45-2.56c1.56-.91,1.55-2.38,0-3.29L188.38,271a6.29,6.29,0,0,0-5.7,0l-4.44,2.56C176.67,274.41,176.68,275.88,178.26,276.79Zm23.09,10,4.44-2.56c1.57-.9,1.56-2.38,0-3.29l-4.47-2.58a6.3,6.3,0,0,0-5.69,0L191.17,281c-1.57.9-1.56,2.37,0,3.28l4.47,2.58A6.26,6.26,0,0,0,201.35,286.84Zm2.76,4.88,4.47,2.58a6.3,6.3,0,0,0,5.69,0l4.45-2.57c1.56-.9,1.56-2.37,0-3.29l-4.47-2.58a6.32,6.32,0,0,0-5.7,0l-4.44,2.57C202.52,289.33,202.53,290.81,204.11,291.72ZM217,299.18l4.47,2.58a6.27,6.27,0,0,0,5.69,0l4.44-2.56c1.57-.91,1.56-2.38,0-3.29l-4.47-2.58a6.27,6.27,0,0,0-5.69,0L217,295.89C215.45,296.8,215.46,298.27,217,299.18Zm27.51,4.2-4.47-2.58a6.27,6.27,0,0,0-5.69,0l-4.45,2.56c-1.56.91-1.56,2.38,0,3.29l4.47,2.58a6.29,6.29,0,0,0,5.7,0l4.44-2.56C246.14,305.76,246.13,304.29,244.55,303.38Zm12.93,7.46L253,308.26a6.32,6.32,0,0,0-5.7,0l-4.44,2.57c-1.57.9-1.56,2.37,0,3.28l4.47,2.58a6.27,6.27,0,0,0,5.69,0l4.44-2.57C259.06,313.23,259.05,311.75,257.48,310.84Zm12.92,7.47-4.47-2.59a6.3,6.3,0,0,0-5.69,0l-4.45,2.57c-1.56.9-1.56,2.38,0,3.29l4.47,2.58a6.32,6.32,0,0,0,5.7,0l4.44-2.57C272,320.69,272,319.22,270.4,318.31Zm12.93,7.46-4.47-2.58a6.29,6.29,0,0,0-5.7,0l-4.44,2.56c-1.57.91-1.56,2.38,0,3.29l4.47,2.58a6.27,6.27,0,0,0,5.69,0l4.44-2.56C284.91,328.15,284.9,326.68,283.33,325.77Zm12.92,7.46-4.47-2.58a6.27,6.27,0,0,0-5.69,0l-4.44,2.56c-1.57.91-1.56,2.38,0,3.29l4.47,2.58a6.29,6.29,0,0,0,5.7,0l4.44-2.56C297.84,335.61,297.83,334.14,296.25,333.23Zm12.93,7.46-4.47-2.58a6.32,6.32,0,0,0-5.7,0l-4.44,2.57c-1.57.9-1.56,2.37,0,3.28l4.47,2.59a6.3,6.3,0,0,0,5.69,0L309.2,344C310.76,343.08,310.76,341.6,309.18,340.69Zm-1.67,10.73L312,354a6.32,6.32,0,0,0,5.7,0l4.44-2.57c1.57-.9,1.56-2.37,0-3.28l-4.47-2.59a6.3,6.3,0,0,0-5.69,0l-4.44,2.57C305.93,349,305.94,350.51,307.51,351.42Zm27.52,4.2L330.56,353a6.29,6.29,0,0,0-5.7,0l-4.44,2.56c-1.57.91-1.56,2.38,0,3.29l4.47,2.58a6.27,6.27,0,0,0,5.69,0l4.45-2.56C336.61,358,336.61,356.53,335,355.62ZM354,366.55l-10.21-5.89a6.24,6.24,0,0,0-5.69,0l-4.44,2.56c-1.57.9-1.56,2.38,0,3.29l10.21,5.89a6.29,6.29,0,0,0,5.7,0l4.44-2.56C355.55,368.93,355.54,367.46,354,366.55ZM166.29,283.7l10.2,5.9a6.32,6.32,0,0,0,5.7,0l4.44-2.57c1.57-.9,1.56-2.38,0-3.29l-10.2-5.89a6.32,6.32,0,0,0-5.7,0l-4.44,2.57C164.7,281.32,164.71,282.79,166.29,283.7ZM185,294.48l4.47,2.58a6.3,6.3,0,0,0,5.69,0l4.45-2.57c1.56-.9,1.56-2.37,0-3.28l-4.47-2.58a6.26,6.26,0,0,0-5.7,0l-4.44,2.56C183.36,292.1,183.37,293.57,185,294.48Zm17.39,10a6.29,6.29,0,0,0,5.7,0l4.44-2.56c1.57-.91,1.56-2.38,0-3.29L208,296.1a6.27,6.27,0,0,0-5.69,0l-4.44,2.56c-1.57.91-1.56,2.38,0,3.29ZM215.27,312a6.27,6.27,0,0,0,5.69,0l4.45-2.56c1.56-.91,1.56-2.38,0-3.29l-4.47-2.58a6.32,6.32,0,0,0-5.7,0l-4.44,2.57c-1.57.9-1.56,2.37,0,3.28Zm12.88-1-4.44,2.57c-1.57.9-1.56,2.37,0,3.29l4.47,2.58a6.3,6.3,0,0,0,5.69,0l4.44-2.57c1.57-.9,1.56-2.38,0-3.29L233.84,311A6.3,6.3,0,0,0,228.15,311Zm13.2,7.31-5,2.88c-1.42.82-1.41,2.15,0,3l5,2.9a5.71,5.71,0,0,0,5.14,0l5-2.88c1.42-.82,1.41-2.15,0-3l-5-2.9A5.67,5.67,0,0,0,241.35,318.32Zm12.92,7.46-5,2.88c-1.42.82-1.41,2.15,0,3l5,2.9a5.7,5.7,0,0,0,5.15,0l5-2.88c1.41-.82,1.41-2.15,0-3l-5-2.9A5.7,5.7,0,0,0,254.27,325.78Zm12.93,7.46-5,2.88c-1.42.82-1.41,2.15,0,3l5,2.9a5.65,5.65,0,0,0,5.14,0l5-2.88c1.42-.82,1.41-2.15,0-3l-5-2.9A5.73,5.73,0,0,0,267.2,333.24Zm12.93,7.47-5,2.88c-1.42.81-1.41,2.14,0,3l5,2.9a5.7,5.7,0,0,0,5.15,0l5-2.88c1.41-.81,1.41-2.14,0-3l-5-2.89A5.65,5.65,0,0,0,280.13,340.71Zm12.92,7.46-5,2.88c-1.41.82-1.41,2.15,0,3l5,2.9a5.7,5.7,0,0,0,5.15,0l5-2.88c1.42-.82,1.41-2.15,0-3l-5-2.9A5.67,5.67,0,0,0,293.05,348.17Zm18.12,16.22,5-2.88c1.42-.82,1.41-2.15,0-3l-5-2.9a5.68,5.68,0,0,0-5.14,0l-5,2.88c-1.42.82-1.41,2.15,0,3l5,2.9A5.7,5.7,0,0,0,311.17,364.39Zm12.93,7.46,5-2.88c1.42-.82,1.41-2.15,0-3l-5-2.9a5.73,5.73,0,0,0-5.15,0l-5,2.88c-1.41.82-1.41,2.15,0,3l5,2.89A5.67,5.67,0,0,0,324.1,371.85Zm18.16,1.77-5-2.9a5.68,5.68,0,0,0-5.14,0l-5,2.88c-1.42.82-1.41,2.15,0,3l5,2.9a5.7,5.7,0,0,0,5.15,0l5-2.88C343.7,375.77,343.69,374.44,342.26,373.62ZM154,290.46l16.21,9.35a5.65,5.65,0,0,0,5.14,0l5-2.88c1.42-.82,1.41-2.15,0-3l-16.2-9.36a5.73,5.73,0,0,0-5.15,0l-5,2.88C152.61,288.3,152.61,289.63,154,290.46Zm24.11,13.92,5,2.9a5.73,5.73,0,0,0,5.15,0l5-2.88c1.41-.82,1.41-2.15,0-3l-5-2.89a5.67,5.67,0,0,0-5.15,0l-5,2.88C176.72,302.22,176.73,303.55,178.15,304.38Zm12.93,7.46,5,2.9a5.68,5.68,0,0,0,5.14,0l5-2.88c1.42-.82,1.41-2.15,0-3l-5-2.9a5.67,5.67,0,0,0-5.15,0l-5,2.88C189.64,309.69,189.65,311,191.08,311.84ZM204,319.3l5,2.9a5.7,5.7,0,0,0,5.15,0l5-2.88c1.41-.82,1.41-2.15,0-3l-5-2.9a5.68,5.68,0,0,0-5.14,0l-5,2.88C202.57,317.15,202.58,318.48,204,319.3Zm23.1,10.37,5-2.88c1.42-.82,1.41-2.15,0-3l-5-2.9a5.73,5.73,0,0,0-5.15,0l-5,2.88c-1.41.82-1.41,2.15,0,3l5,2.89A5.67,5.67,0,0,0,227.1,329.67ZM240,337.14l5-2.88c1.42-.82,1.41-2.15,0-3l-5-2.89a5.65,5.65,0,0,0-5.14,0l-5,2.88c-1.42.81-1.41,2.15,0,3l5,2.9A5.73,5.73,0,0,0,240,337.14ZM253,344.6l5-2.88c1.42-.82,1.41-2.15,0-3l-5-2.9a5.7,5.7,0,0,0-5.15,0l-5,2.88c-1.41.82-1.41,2.15,0,3l5,2.9A5.7,5.7,0,0,0,253,344.6Zm12.92,7.46,5-2.88c1.42-.82,1.41-2.15,0-3l-5-2.9a5.68,5.68,0,0,0-5.14,0l-5,2.88c-1.42.82-1.41,2.15,0,3l5,2.9A5.68,5.68,0,0,0,265.87,352.06Zm12.93,7.46,5-2.88c1.41-.81,1.41-2.15,0-3l-5-2.9a5.73,5.73,0,0,0-5.15,0l-5,2.88c-1.41.82-1.4,2.15,0,3l5,2.89A5.67,5.67,0,0,0,278.8,359.52ZM291.72,367l5-2.88c1.42-.82,1.41-2.15,0-3l-5-2.89a5.67,5.67,0,0,0-5.15,0l-5,2.88c-1.42.81-1.41,2.15,0,3l5,2.9A5.71,5.71,0,0,0,291.72,367Zm2.76,4.55,5,2.9a5.7,5.7,0,0,0,5.15,0l5-2.88c1.41-.82,1.41-2.15,0-3l-5-2.9a5.7,5.7,0,0,0-5.15,0l-5,2.88C293.05,369.39,293.06,370.72,294.48,371.54Zm35.81,9-12.76-7.37a5.7,5.7,0,0,0-5.15,0l-5,2.88c-1.41.82-1.41,2.15,0,3l12.76,7.37a5.67,5.67,0,0,0,5.15,0l5-2.88C331.72,382.68,331.72,381.35,330.29,380.53Zm-188.17-82.8,23,13.27a6.42,6.42,0,0,0,5.82,0l4.32-2.49c1.6-.93,1.59-2.43,0-3.36l-23-13.28a6.45,6.45,0,0,0-5.82,0l-4.32,2.5C140.5,295.29,140.51,296.8,142.12,297.73ZM173.69,316l4.35,2.51a6.43,6.43,0,0,0,5.81,0l4.32-2.5c1.61-.92,1.6-2.43,0-3.36l-4.35-2.51a6.45,6.45,0,0,0-5.82,0l-4.32,2.5C172.07,313.52,172.08,315,173.69,316Zm12.92,7.47,4.35,2.51a6.45,6.45,0,0,0,5.82,0l4.32-2.5c1.6-.92,1.59-2.42,0-3.35l-4.35-2.52a6.43,6.43,0,0,0-5.81,0l-4.33,2.5C185,321,185,322.49,186.61,323.42Zm12.93,7.46,4.35,2.51a6.43,6.43,0,0,0,5.81,0l4.33-2.5c1.6-.92,1.59-2.42,0-3.35L209.66,325a6.42,6.42,0,0,0-5.82,0l-4.32,2.49C197.92,328.45,197.93,330,199.54,330.88Zm12.92,7.46,4.35,2.51a6.42,6.42,0,0,0,5.82,0l4.32-2.49c1.6-.93,1.59-2.43,0-3.36l-4.35-2.51a6.4,6.4,0,0,0-5.81,0L212.45,335C210.85,335.91,210.85,337.41,212.46,338.34Zm12.93,7.46,4.35,2.52a6.43,6.43,0,0,0,5.81,0l4.33-2.5c1.6-.92,1.59-2.43,0-3.36L235.51,340a6.45,6.45,0,0,0-5.82,0l-4.32,2.5C223.77,343.37,223.78,344.87,225.39,345.8Zm12.93,7.47,4.35,2.51a6.43,6.43,0,0,0,5.81,0l4.32-2.5c1.6-.92,1.6-2.42,0-3.35l-4.35-2.52a6.43,6.43,0,0,0-5.81,0l-4.32,2.5C236.7,350.83,236.7,352.34,238.32,353.27Zm12.92,7.46,4.35,2.51a6.42,6.42,0,0,0,5.82,0l4.32-2.49c1.6-.93,1.59-2.43,0-3.36l-4.35-2.51a6.4,6.4,0,0,0-5.81,0l-4.33,2.49C249.62,358.3,249.63,359.8,251.24,360.73Zm12.93,7.46,4.35,2.51a6.4,6.4,0,0,0,5.81,0l4.32-2.49c1.6-.93,1.6-2.43,0-3.36l-4.35-2.51a6.42,6.42,0,0,0-5.82,0l-4.32,2.49C262.55,365.76,262.56,367.26,264.17,368.19Zm12.92,7.46,4.35,2.52a6.45,6.45,0,0,0,5.82,0l4.32-2.5c1.6-.92,1.59-2.43,0-3.36l-4.35-2.51a6.43,6.43,0,0,0-5.81,0l-4.33,2.5C275.47,373.22,275.48,374.72,277.09,375.65ZM290,383.12l4.35,2.51a6.43,6.43,0,0,0,5.81,0l4.33-2.5c1.6-.92,1.59-2.42,0-3.35l-4.35-2.52a6.45,6.45,0,0,0-5.82,0l-4.32,2.5C288.4,380.68,288.41,382.19,290,383.12Zm27.68,4.29-4.35-2.51a6.43,6.43,0,0,0-5.81,0l-4.33,2.5c-1.6.92-1.59,2.43,0,3.35l4.35,2.52a6.43,6.43,0,0,0,5.81,0l4.33-2.5C319.32,389.85,319.31,388.34,317.7,387.41ZM150.35,304.62l-10.09-5.82a6.4,6.4,0,0,0-5.81,0l-4.32,2.49c-1.6.93-1.6,2.43,0,3.36l10.08,5.82a6.42,6.42,0,0,0,5.82,0l4.32-2.49C152,307.05,152,305.55,150.35,304.62Zm12.93,7.46-4.35-2.51a6.45,6.45,0,0,0-5.82,0l-4.32,2.5c-1.6.92-1.59,2.42,0,3.35l4.35,2.51a6.43,6.43,0,0,0,5.81,0l4.33-2.5C164.9,314.52,164.89,313,163.28,312.08Zm12.92,7.47L171.85,317a6.43,6.43,0,0,0-5.81,0l-4.33,2.5c-1.6.92-1.59,2.43,0,3.36l4.35,2.51a6.45,6.45,0,0,0,5.82,0l4.32-2.5C177.82,322,177.81,320.47,176.2,319.55Zm90.48,52.23-81.9-47.28a6.42,6.42,0,0,0-5.82,0L174.64,327c-1.6.93-1.59,2.43,0,3.36l81.9,47.29a6.45,6.45,0,0,0,5.82,0l4.32-2.5C268.3,374.22,268.29,372.71,266.68,371.78Zm12.93,7.47-4.35-2.52a6.45,6.45,0,0,0-5.82,0l-4.32,2.5c-1.6.92-1.59,2.43,0,3.36l4.35,2.51a6.43,6.43,0,0,0,5.81,0l4.33-2.5C281.23,381.68,281.22,380.18,279.61,379.25Zm12.92,7.46-4.35-2.51a6.4,6.4,0,0,0-5.81,0l-4.32,2.49c-1.61.93-1.6,2.43,0,3.36l4.35,2.51a6.42,6.42,0,0,0,5.82,0l4.32-2.49C294.15,389.14,294.14,387.64,292.53,386.71Zm13.2,7.62-4.35-2.52a6.45,6.45,0,0,0-5.82,0l-4.32,2.5c-1.6.92-1.59,2.43,0,3.36l4.35,2.51a6.43,6.43,0,0,0,5.81,0l4.33-2.5C307.35,396.76,307.34,395.26,305.73,394.33Z"/><polygon class="cls-22" points="439.83 164.84 411.09 363.58 405.13 374.1 186.89 241.15 242.84 51.97 439.83 164.84"/><polygon class="cls-23" points="405.46 160.06 405.46 373.77 182.82 245.39 182.82 31.68 405.46 160.06"/><polygon class="cls-24" points="405.46 156.98 405.46 184.39 404.45 184.9 182.82 56.01 181.8 29.11 182.82 28.61 405.46 156.98"/><polygon class="cls-25" points="404.45 160.56 404.45 374.28 181.8 245.9 181.8 32.19 404.45 160.56"/><polygon class="cls-26" points="187.97 241.63 187.97 69.11 398.28 190.37 398.28 362.89 187.97 241.63"/><polygon class="cls-27" points="404.45 157.49 404.45 184.9 181.8 56.52 181.8 29.11 404.45 157.49"/><path class="cls-5" d="M192.52,44.93l14.78,8.54c.57.33,1,.07,1-.58a2.23,2.23,0,0,0-1-1.76l-14.78-8.54c-.57-.32-1-.06-1,.59A2.21,2.21,0,0,0,192.52,44.93ZM207.3,56.4l-14.78-8.54c-.57-.33-1-.07-1,.58a2.23,2.23,0,0,0,1,1.76l14.78,8.54c.57.32,1,.06,1-.58A2.22,2.22,0,0,0,207.3,56.4Zm0,5.26-14.78-8.53c-.57-.33-1-.07-1,.58a2.25,2.25,0,0,0,1,1.76L207.3,64c.57.33,1,.07,1-.58A2.25,2.25,0,0,0,207.3,61.66Z"/><path class="cls-5" d="M395.48,165.9c0,2-1.42,2.82-3.17,1.81a7,7,0,0,1-3.17-5.47c0-2,1.42-2.81,3.17-1.8A7,7,0,0,1,395.48,165.9Z"/><path class="cls-5" d="M385.92,160.35c0,2-1.42,2.81-3.17,1.81a7,7,0,0,1-3.16-5.47c0-2,1.42-2.81,3.16-1.8A7,7,0,0,1,385.92,160.35Z"/><path class="cls-5" d="M376.37,154.8c0,2-1.42,2.81-3.17,1.8a7,7,0,0,1-3.17-5.46c0-2,1.42-2.82,3.17-1.81A7,7,0,0,1,376.37,154.8Z"/><polygon class="cls-28" points="372.57 194.44 372.57 197.38 359.39 189.77 359.39 209.1 385.68 224.28 385.68 202.01 372.57 194.44"/><polygon class="cls-29" points="370.97 194.97 370.97 197.91 357.78 190.3 357.78 209.63 381.97 226.12 384.08 224.81 384.08 202.54 370.97 194.97"/><polygon class="cls-5" points="356.58 210.06 382.88 225.24 382.88 207.11 356.58 191.93 356.58 210.06"/><polygon class="cls-30" points="355.65 210.88 381.94 226.06 381.94 209.92 355.65 194.74 355.65 210.88"/><polygon class="cls-28" points="334.45 172.35 334.45 175.3 321.27 167.69 321.27 187.01 347.56 202.2 347.56 179.93 334.45 172.35"/><polygon class="cls-31" points="332.85 172.89 332.85 175.83 319.67 168.22 319.67 187.55 343.85 204.03 345.96 202.73 345.96 180.46 332.85 172.89"/><polygon class="cls-5" points="318.46 187.98 344.76 203.16 344.76 185.03 318.46 169.85 318.46 187.98"/><polygon class="cls-32" points="317.53 188.79 343.82 203.97 343.82 187.84 317.53 172.66 317.53 188.79"/><polygon class="cls-28" points="296.33 150.27 296.33 153.21 283.15 145.6 283.15 164.93 309.44 180.11 309.44 157.84 296.33 150.27"/><polygon class="cls-33" points="294.73 150.81 294.73 153.75 281.55 146.14 281.55 165.47 305.73 181.95 307.84 180.65 307.84 158.38 294.73 150.81"/><polygon class="cls-5" points="280.35 165.89 306.64 181.07 306.64 162.95 280.35 147.77 280.35 165.89"/><polygon class="cls-34" points="279.41 166.71 305.71 181.89 305.71 165.75 279.41 150.57 279.41 166.71"/><polygon class="cls-28" points="258.21 128.19 258.21 131.13 245.03 123.52 245.03 142.85 271.32 158.03 271.32 135.76 258.21 128.19"/><polygon class="cls-35" points="256.61 128.72 256.61 131.66 243.43 124.05 243.43 143.38 267.61 159.87 269.72 158.56 269.72 136.29 256.61 128.72"/><polygon class="cls-5" points="242.23 143.81 268.52 158.99 268.52 140.87 242.23 125.69 242.23 143.81"/><polygon class="cls-36" points="241.29 144.63 267.59 159.81 267.59 143.67 241.29 128.49 241.29 144.63"/><polygon class="cls-28" points="220.09 106.11 220.09 109.05 206.91 101.44 206.91 120.77 233.2 135.95 233.2 113.68 220.09 106.11"/><polygon class="cls-37" points="218.49 106.64 218.49 109.58 205.31 101.97 205.31 121.3 229.5 137.79 231.6 136.48 231.6 114.21 218.49 106.64"/><polygon class="cls-5" points="204.11 121.73 230.4 136.91 230.4 118.78 204.11 103.6 204.11 121.73"/><polygon class="cls-38" points="203.17 122.55 229.47 137.73 229.47 121.59 203.17 106.41 203.17 122.55"/><polygon class="cls-28" points="372.57 302.05 372.57 304.99 359.39 297.38 359.39 316.71 385.68 331.89 385.68 309.62 372.57 302.05"/><polygon class="cls-39" points="370.97 302.58 370.97 305.52 357.78 297.91 357.78 317.24 381.97 333.73 384.08 332.42 384.08 310.15 370.97 302.58"/><polygon class="cls-5" points="356.58 317.67 382.88 332.85 382.88 314.72 356.58 299.54 356.58 317.67"/><polygon class="cls-40" points="355.65 318.49 381.94 333.67 381.94 317.53 355.65 302.35 355.65 318.49"/><polygon class="cls-28" points="334.45 279.96 334.45 282.91 321.27 275.3 321.27 294.62 347.56 309.81 347.56 287.54 334.45 279.96"/><polygon class="cls-41" points="332.85 280.5 332.85 283.44 319.67 275.83 319.67 295.16 343.85 311.64 345.96 310.34 345.96 288.07 332.85 280.5"/><polygon class="cls-5" points="318.46 295.59 344.76 310.77 344.76 292.64 318.46 277.46 318.46 295.59"/><polygon class="cls-42" points="317.53 296.4 343.82 311.58 343.82 295.45 317.53 280.26 317.53 296.4"/><polygon class="cls-28" points="296.33 257.88 296.33 260.82 283.15 253.21 283.15 272.54 309.44 287.72 309.44 265.45 296.33 257.88"/><polygon class="cls-43" points="294.73 258.42 294.73 261.36 281.55 253.75 281.55 273.07 305.73 289.56 307.84 288.26 307.84 265.99 294.73 258.42"/><polygon class="cls-5" points="280.35 273.5 306.64 288.68 306.64 270.56 280.35 255.38 280.35 273.5"/><polygon class="cls-44" points="279.41 274.32 305.71 289.5 305.71 273.36 279.41 258.18 279.41 274.32"/><polygon class="cls-28" points="258.21 235.8 258.21 238.74 245.03 231.13 245.03 250.46 271.32 265.64 271.32 243.37 258.21 235.8"/><polygon class="cls-45" points="256.61 236.33 256.61 239.27 243.43 231.66 243.43 250.99 267.61 267.48 269.72 266.17 269.72 243.9 256.61 236.33"/><polygon class="cls-5" points="242.23 251.42 268.52 266.6 268.52 248.48 242.23 233.29 242.23 251.42"/><polygon class="cls-46" points="241.29 252.24 267.59 267.42 267.59 251.28 241.29 236.1 241.29 252.24"/><polygon class="cls-28" points="220.09 213.72 220.09 216.66 206.91 209.05 206.91 228.38 233.2 243.56 233.2 221.29 220.09 213.72"/><polygon class="cls-47" points="218.49 214.25 218.49 217.19 205.31 209.58 205.31 228.91 229.5 245.4 231.6 244.09 231.6 221.82 218.49 214.25"/><polygon class="cls-5" points="204.11 229.34 230.4 244.52 230.4 226.39 204.11 211.21 204.11 229.34"/><polygon class="cls-48" points="203.17 230.16 229.47 245.34 229.47 229.2 203.17 214.02 203.17 230.16"/><polygon class="cls-28" points="372.57 265.94 372.57 268.88 359.39 261.27 359.39 280.6 385.68 295.79 385.68 273.51 372.57 265.94"/><polygon class="cls-49" points="370.97 266.48 370.97 269.42 357.78 261.81 357.78 281.14 381.97 297.63 384.08 296.32 384.08 274.05 370.97 266.48"/><polygon class="cls-5" points="356.58 281.56 382.88 296.75 382.88 278.62 356.58 263.44 356.58 281.56"/><polygon class="cls-50" points="355.65 282.38 381.94 297.56 381.94 281.43 355.65 266.25 355.65 282.38"/><polygon class="cls-28" points="334.45 243.86 334.45 246.8 321.27 239.19 321.27 258.52 347.56 273.7 347.56 251.43 334.45 243.86"/><polygon class="cls-51" points="332.85 244.4 332.85 247.34 319.67 239.72 319.67 259.05 343.85 275.54 345.96 274.24 345.96 251.97 332.85 244.4"/><polygon class="cls-5" points="318.46 259.48 344.76 274.66 344.76 256.54 318.46 241.36 318.46 259.48"/><polygon class="cls-52" points="317.53 260.3 343.82 275.48 343.82 259.34 317.53 244.16 317.53 260.3"/><polygon class="cls-28" points="296.33 221.78 296.33 224.72 283.15 217.11 283.15 236.44 309.44 251.62 309.44 229.35 296.33 221.78"/><polygon class="cls-53" points="294.73 222.31 294.73 225.25 281.55 217.64 281.55 236.97 305.73 253.46 307.84 252.15 307.84 229.88 294.73 222.31"/><polygon class="cls-5" points="280.35 237.4 306.64 252.58 306.64 234.46 280.35 219.27 280.35 237.4"/><polygon class="cls-54" points="279.41 238.22 305.71 253.4 305.71 237.26 279.41 222.08 279.41 238.22"/><polygon class="cls-28" points="258.21 199.7 258.21 202.64 245.03 195.03 245.03 214.35 271.32 229.54 271.32 207.27 258.21 199.7"/><polygon class="cls-55" points="256.61 200.23 256.61 203.17 243.43 195.56 243.43 214.89 267.61 231.38 269.72 230.07 269.72 207.8 256.61 200.23"/><polygon class="cls-5" points="242.23 215.32 268.52 230.5 268.52 212.37 242.23 197.19 242.23 215.32"/><polygon class="cls-56" points="241.29 216.13 267.59 231.31 267.59 215.18 241.29 200 241.29 216.13"/><polygon class="cls-28" points="220.09 177.61 220.09 180.55 206.91 172.94 206.91 192.27 233.2 207.45 233.2 185.18 220.09 177.61"/><polygon class="cls-57" points="218.49 178.15 218.49 181.09 205.31 173.48 205.31 192.81 229.5 209.29 231.6 207.99 231.6 185.72 218.49 178.15"/><polygon class="cls-5" points="204.11 193.23 230.4 208.41 230.4 190.29 204.11 175.11 204.11 193.23"/><polygon class="cls-58" points="203.17 194.05 229.47 209.23 229.47 193.09 203.17 177.91 203.17 194.05"/><polygon class="cls-28" points="372.57 230.54 372.57 233.48 359.39 225.87 359.39 245.2 385.68 260.38 385.68 238.11 372.57 230.54"/><polygon class="cls-59" points="370.97 231.07 370.97 234.02 357.78 226.41 357.78 245.74 381.97 262.22 384.08 260.92 384.08 238.65 370.97 231.07"/><polygon class="cls-5" points="356.58 246.16 382.88 261.34 382.88 243.22 356.58 228.04 356.58 246.16"/><polygon class="cls-60" points="355.65 246.98 381.94 262.16 381.94 246.02 355.65 230.84 355.65 246.98"/><polygon class="cls-28" points="334.45 208.46 334.45 211.4 321.27 203.79 321.27 223.12 347.56 238.3 347.56 216.03 334.45 208.46"/><polygon class="cls-61" points="332.85 208.99 332.85 211.93 319.67 204.32 319.67 223.65 343.85 240.14 345.96 238.83 345.96 216.56 332.85 208.99"/><polygon class="cls-5" points="318.46 224.08 344.76 239.26 344.76 221.13 318.46 205.95 318.46 224.08"/><polygon class="cls-62" points="317.53 224.9 343.82 240.08 343.82 223.94 317.53 208.76 317.53 224.9"/><polygon class="cls-28" points="296.33 186.38 296.33 189.32 283.15 181.71 283.15 201.03 309.44 216.22 309.44 193.95 296.33 186.38"/><polygon class="cls-63" points="294.73 186.91 294.73 189.85 281.55 182.24 281.55 201.57 305.73 218.06 307.84 216.75 307.84 194.48 294.73 186.91"/><polygon class="cls-5" points="280.35 202 306.64 217.18 306.64 199.05 280.35 183.87 280.35 202"/><polygon class="cls-64" points="279.41 202.81 305.71 218 305.71 201.86 279.41 186.68 279.41 202.81"/><polygon class="cls-28" points="258.21 164.29 258.21 167.23 245.03 159.62 245.03 178.95 271.32 194.13 271.32 171.86 258.21 164.29"/><polygon class="cls-65" points="256.61 164.83 256.61 167.77 243.43 160.16 243.43 179.49 267.61 195.97 269.72 194.67 269.72 172.4 256.61 164.83"/><polygon class="cls-5" points="242.23 179.91 268.52 195.09 268.52 176.97 242.23 161.79 242.23 179.91"/><polygon class="cls-66" points="241.29 180.73 267.59 195.91 267.59 179.78 241.29 164.59 241.29 180.73"/><polygon class="cls-28" points="220.09 142.21 220.09 145.15 206.91 137.54 206.91 156.87 233.2 172.05 233.2 149.78 220.09 142.21"/><polygon class="cls-67" points="218.49 142.74 218.49 145.69 205.31 138.07 205.31 157.4 229.5 173.89 231.6 172.59 231.6 150.31 218.49 142.74"/><polygon class="cls-5" points="204.11 157.83 230.4 173.01 230.4 154.89 204.11 139.71 204.11 157.83"/><polygon class="cls-68" points="203.17 158.65 229.47 173.83 229.47 157.69 203.17 142.51 203.17 158.65"/><polygon class="cls-69" points="465.36 189.8 304.79 96.91 263.31 121.55 263.31 160.4 423.8 253.14 423.8 253.16 423.81 253.15 423.83 253.16 423.83 253.14 465.36 228.66 465.36 189.8"/><g class="cls-70"><polygon class="cls-71" points="423.8 214.51 423.8 253.16 435 246.69 435 207.83 423.8 214.51"/><polygon class="cls-72" points="423.83 214.51 423.83 253.16 263.31 160.4 263.31 121.55 423.83 214.51"/><polygon class="cls-73" points="263.31 121.55 423.83 214.51 435 207.83 274.43 114.94 263.31 121.55"/></g><path class="cls-5" d="M416.07,237.41,411.16,229a2.35,2.35,0,0,0-1.9-1.38l-1.43-2.48c2.15-2,1.94-6.81-.66-11.29-2.83-4.89-7.43-7.54-10.27-5.93s-2.83,6.9,0,11.79c2.6,4.48,6.67,7.07,9.51,6.24l1.44,2.48a2.33,2.33,0,0,0,.24,2.32l4.91,8.46c.62,1.06,1.61,1.64,2.23,1.28l.84-.47C416.68,239.61,416.68,238.47,416.07,237.41Zm-10.65-14.84c-1.87,1.06-4.9-.69-6.77-3.91s-1.86-6.7,0-7.76,4.9.68,6.77,3.9S407.29,221.5,405.42,222.57Z"/><polygon class="cls-5" points="389.09 223.08 274.02 156.38 274.02 137.84 389.09 204.54 389.09 223.08"/><polygon class="cls-74" points="216.39 150.54 202.48 158.83 182.57 146.42 182.57 259.08 265.77 324.73 286.2 312.17 286.2 190.84 216.39 150.54"/><path class="cls-75" d="M204.07,157.45v9.69l-65-37.54a3.45,3.45,0,0,0-5.17,3V252.21l124.06,72.1a9.09,9.09,0,0,0,9.37-.13l2.64-1.64a8.28,8.28,0,0,0,3.93-7.05V197.21a9.39,9.39,0,0,0-4.69-8.13l-59.95-34.61A3.44,3.44,0,0,0,204.07,157.45Z"/><g class="cls-76"><path class="cls-77" d="M137.63,130.79l65,37.54v-2l-63.6-36.72a3.42,3.42,0,0,0-4.56,1.06A3.37,3.37,0,0,1,137.63,130.79Z"/><path class="cls-78" d="M269.19,189.08l-59.95-34.61a3.43,3.43,0,0,0-4.56,1.05,3.4,3.4,0,0,1,3.14.13l59.95,34.62a9.37,9.37,0,0,1,4.69,8.12V316.67a8.28,8.28,0,0,1-2.27,5.7,8.27,8.27,0,0,0,3.69-6.88V197.21A9.39,9.39,0,0,0,269.19,189.08Z"/></g><polygon class="cls-5" points="127.49 241.55 267.49 322.38 267.49 216.13 127.49 135.31 127.49 241.55"/><polygon class="cls-79" points="127.49 245.1 265.01 324.5 265.01 225.13 127.49 145.73 127.49 245.1"/><path class="cls-80" d="M128.58,249.41l129.59,74.82a9,9,0,0,0,8.77.13l.84-.46-.88.34a3.22,3.22,0,0,1-4.38-3v-89a9.37,9.37,0,0,0-4.7-8.12L127.68,149a3.45,3.45,0,0,0-5.17,3V238.9A12.15,12.15,0,0,0,128.58,249.41Z"/><path class="cls-81" d="M266.9,324.24a3.22,3.22,0,0,1-4.38-3v-89a9.37,9.37,0,0,0-4.7-8.12L127.68,149a3.43,3.43,0,0,0-4.29.72,3.4,3.4,0,0,1,3,.17L256.58,225a9.37,9.37,0,0,1,4.69,8.12v89a3.24,3.24,0,0,0,2.79,3.2,9.2,9.2,0,0,0,2.88-.95l.84-.46Z"/><path class="cls-82" d="M228.15,226.51c-11.21-6.36-22.18-16.6-31.36-29.27l-.13-.08c-9.19,2.07-20.15-.35-31.36-6.94l-.43-.25-5.93,3.37,6.8,4.47c2.13,28.38,13.2,51.68,31,79.27l.44.25c3.2-1.26-1.65,1.64,1.1.09l7.93-4.25c12.37-7.1,20-18,21.73-39.05l.61-7.37Z"/><path class="cls-83" d="M228.15,226.51c-11.21-6.36-22.18-16.6-31.36-29.27l-.13-.08-.18,0-22.56,13,46.2,21.19,8.46-4.68Z"/><path class="cls-84" d="M223,229.41c-11.21-6.36-22.17-16.59-31.36-29.27l-.13-.07c-9.19,2.07-20.15-.36-31.36-6.95l-.43-.25.6,8.07c2.13,28.39,13.21,51.68,31,79.27l.43.25c17.83-7,28.91-17.51,31-43.43l.61-7.38Z"/><path class="cls-85" d="M222.13,229.74c-11.22-6.36-22.18-16.59-31.37-29.27l-.12-.07c-9.19,2.07-20.16-.36-31.37-7l-.43-.25.61,8.08c2.13,28.38,13.2,51.67,31,79.26l.43.25c17.83-7,28.91-17.51,31-43.43l.6-7.37Z"/><path class="cls-86" d="M222.13,229.74c-11.22-6.36-22.18-16.59-31.37-29.27l-.12-.07c-9.19,2.07-20.16-.36-31.37-7l-.43-.25.61,8.08c2.13,28.38,13.2,51.67,31,79.26l.43.25c17.83-7,28.91-17.51,31-43.43l.6-7.37Z"/><path class="cls-87" d="M222.13,229.74l-.57-.33-.6,7.31c-2.11,25.81-13.1,36.33-30.79,43.33.1.17.21.33.31.49l.43.25c17.83-7,28.91-17.51,31-43.43l.6-7.37Z"/><path class="cls-88" d="M192.06,276.57C176,251.5,165,228.85,162.91,201l-.13-1.77A49.61,49.61,0,0,0,184,204.59a34.61,34.61,0,0,0,5.23-.39c8.84,11.81,19.05,21.32,29.71,27.69l-.42,5.19C216.53,260.9,207,270.22,192.06,276.57Z"/><path class="cls-89" d="M165.16,200.6l0-.28c-.79-.33-1.58-.69-2.36-1.07l.13,1.77C165,228.85,176,251.5,192.06,276.57c.66-.28,1.31-.57,2-.87C178.15,250.8,167.23,228.27,165.16,200.6Z"/><polygon class="cls-90" points="194.46 251.16 188.42 247.67 188.42 219.97 194.46 223.46 194.46 251.16"/><polygon class="cls-91" points="190.25 246.49 190.25 221.03 188.42 219.97 188.42 247.67 194.46 251.16 194.46 248.92 190.25 246.49"/><polygon class="cls-92" points="193.78 223.19 193.69 223.13 190.41 221.03 111.74 266.45 111.74 297.81 115.02 295.92 115.02 299.65 154.85 271.05 193.69 249.63 193.69 223.32 193.78 223.19"/><polygon class="cls-93" points="178.68 227.78 100.01 273.2 100.01 304.56 153.74 273.55 155.28 268.05 182.05 229.94 178.68 227.78"/><polygon class="cls-94" points="181.96 229.63 103.29 275.04 103.29 306.41 157.02 275.39 158.56 269.89 181.96 256.38 181.96 229.63"/><polygon class="cls-5" points="172.73 257.5 110.99 293.16 110.99 277.7 172.73 242.03 172.73 257.5"/><polygon class="cls-95" points="171.66 242.65 171.66 257.05 110.99 292.1 110.99 293.16 172.73 257.5 172.73 242.03 171.66 242.65"/><path class="cls-96" d="M105.44,258.72,100.25,256c-1.24-.82-3-.77-5,.37l-22.5,13A15,15,0,0,0,66,281.12V327c0,2.43,1,4,2.49,4.59l5.28,2.82.09-2.65.33-.17,22.5-13a15,15,0,0,0,6.79-11.72V261c0-.24,0-.47,0-.7Zm-16.79,45a13.55,13.55,0,0,1-6.14,10.6l-1.3.75c-3.39,1.95-6.14.39-6.14-3.51v-6.12l4.36-25.58a10.21,10.21,0,0,1,1.78-1.37l1.3-.75c3.39-2,6.14-.39,6.14,3.5Z"/><path class="cls-97" d="M100.55,259.18l-22.5,13a15,15,0,0,0-6.79,11.71v45.84c0,4.3,3,6,6.79,3.87l22.5-13a15,15,0,0,0,6.79-11.72V263.05C107.34,258.74,104.3,257,100.55,259.18Zm-8,46.57a13.55,13.55,0,0,1-6.14,10.6l-1.3.74c-3.39,2-6.14.39-6.14-3.5V291.11a13.54,13.54,0,0,1,6.14-10.59l1.3-.75c3.39-2,6.14-.39,6.14,3.5Z"/><g class="cls-76"><path class="cls-98" d="M85.82,317.09l1.3-.74a13.55,13.55,0,0,0,6.14-10.6V283.27c0-2.55-1.18-4.09-3-4.31,1.19.6,1.93,2,1.93,4v22.48A13.54,13.54,0,0,1,86.09,316l-1.29.75a5.22,5.22,0,0,1-3.2.8A4.38,4.38,0,0,0,85.82,317.09Z"/><path class="cls-99" d="M72,329.72V283.88a15,15,0,0,1,6.79-11.71l22.51-13a5.61,5.61,0,0,1,3.59-.89c-1.22-.59-2.83-.45-4.61.58l-22.51,13A15,15,0,0,0,71,283.58v45.83c0,2.79,1.28,4.49,3.2,4.76C72.82,333.52,72,332,72,329.72Z"/></g><circle class="cls-100" cx="72.02" cy="275.91" r="16.35"/><g class="cls-101"><path class="cls-102" d="M82.48,354.2a18.83,18.83,0,0,0,9.43-2.27l47.93-30.55,47.93-30.55a10,10,0,0,0,5.41-8.62c0-3.83.53-30.22-3.61-32.61l-5.21-2.13c-3.26-1.88-10.23,19.91-14.36,19.91a18.9,18.9,0,0,0-9.44,2.28l-49.94,28.83L60.68,327.32c-3.44,2-5.41,5.13-5.41,8.62,0,3.83,2.38,7.4,6.52,9.79C61.79,345.73,78.35,354.2,82.48,354.2Z"/><path class="cls-103" d="M188.15,252.24c-.11,0-5-1.9-5-1.88-3.56-1.56-10.33,18.55-14.3,18.62a19.76,19.76,0,0,0-9,2.33l-48.11,27.78L63.53,326.87A10.51,10.51,0,0,0,58.22,334c0,.34-.09.67-.11,1-.18,3.63,2,7.1,6,9.43,0,0,1.93,1,4.34,2.19,5,2.42,12.82,5.84,15.57,5.75a20.76,20.76,0,0,0,2.11-.14A18.31,18.31,0,0,0,93.06,350l46-29.4,3.94-2.52,42.09-26.88c3.12-1.81,5.38-5,5.38-8.15,0-.89.25-3.33.3-6.21.09-5.64.53-13.79-.57-19.14C189.68,255.08,189.1,252.79,188.15,252.24Z"/><path class="cls-104" d="M186.73,254.88c-.21,0-4.68-1.67-4.87-1.62-3.86-1.24-10.42,17.18-14.24,17.31A20.65,20.65,0,0,0,159,273l-46.29,26.73L66.37,326.43c-2.52,1.45-4.85,4.21-5.27,6.69-.06.31-.12.63-.15.95-.36,3.43,1.64,6.8,5.57,9.07,0,0,2,1.07,4.14,2.13,4.78,2.32,12.22,5.46,15,5.27.69,0,1.36-.1,2-.17a19.39,19.39,0,0,0,6.56-2.21l44.13-28.26,3.77-2.42,40.35-25.84c2.82-1.63,5.35-4.81,5.35-7.67,0-.8.48-3.21.59-5.8.22-5.25,1.33-12.95.15-18C188,257.81,187.59,255.38,186.73,254.88Z"/><path class="cls-105" d="M185.31,257.52c-.32.05-4.41-1.43-4.7-1.36-4.16-.93-10.51,15.81-14.18,16a22.2,22.2,0,0,0-8.24,2.45l-44.47,25.68L69.22,326c-2.24,1.29-4.79,4.07-5.24,6.26-.06.3-.15.59-.19.89-.54,3.23,1.27,6.51,5.09,8.71,0,0,2,1.14,4,2.08,4.56,2.23,11.61,5.07,14.38,4.8.65,0,1.29-.14,1.92-.22a20.47,20.47,0,0,0,6.23-2.23l42.22-27.12,3.62-2.32L179.81,292c2.5-1.45,5.32-4.65,5.32-7.19,0-.71.71-3.09.87-5.39.36-4.87,2.13-12.09.87-16.83C186.32,260.53,186.07,258,185.31,257.52Z"/><path class="cls-106" d="M183.88,260.16c-.42.07-4.14-1.2-4.53-1.1-4.45-.62-10.58,14.44-14.1,14.69a24.29,24.29,0,0,0-7.85,2.51l-42.65,24.63L72.07,325.53c-2,1.13-4.75,3.94-5.21,5.84-.07.28-.17.54-.24.82-.72,3,.92,6.21,4.63,8.36,0,0,2.06,1.19,3.74,2,4.36,2.14,11,4.68,13.79,4.32.63-.05,1.23-.17,1.82-.26a21.52,21.52,0,0,0,5.9-2.25l40.33-26,3.45-2.22,36.88-23.75c2.19-1.26,5.29-4.49,5.29-6.71,0-.63.94-3,1.16-5,.48-4.51,2.92-11.22,1.59-15.67C184.65,263.26,184.55,260.55,183.88,260.16Z"/><path class="cls-107" d="M182.46,262.8c-.52.09-3.87-1-4.36-.85-4.75-.29-10.66,13.08-14,13.39a27.28,27.28,0,0,0-7.45,2.57l-40.82,23.57-40.88,23.6c-1.68,1-4.71,3.8-5.17,5.42-.07.26-.2.5-.28.75-.91,2.85.55,5.92,4.15,8,0,0,2.11,1.26,3.55,2,4.14,2,10.42,4.29,13.19,3.84.6-.07,1.17-.2,1.73-.29a23.9,23.9,0,0,0,5.57-2.27l38.43-24.83,3.29-2.13,35.14-22.7c1.87-1.08,5.25-4.33,5.25-6.23,0-.54,1.2-2.86,1.45-4.57.61-4.16,3.73-10.34,2.31-14.52C183,266,183,263.13,182.46,262.8Z"/><path class="cls-108" d="M181,265.44c-.63.11-3.61-.73-4.19-.59-5,0-10.74,11.71-14,12.09a30.7,30.7,0,0,0-7.05,2.62l-39,22.52L77.76,324.63c-1.4.81-5,3.6-5.14,5-.12.23-.22.46-.32.69-1.11,2.66.18,5.62,3.68,7.64,0,0,2.16,1.32,3.35,1.92,3.92,2,9.82,3.9,12.6,3.36.56-.08,1.1-.23,1.63-.33a26.7,26.7,0,0,0,5.24-2.29l36.53-23.68,3.13-2,33.39-21.66c1.57-.9,5.23-4.17,5.23-5.75,0-.45,1.74-2.72,1.73-4.16,1.49-3.61,5.24-9.78,3-13.36C181.6,268.63,181.52,265.72,181,265.44Z"/><path class="cls-109" d="M179.62,268.08c-.74.13-3.34-.5-4-.33-5.35.33-10.81,10.34-13.92,10.78a37,37,0,0,0-6.65,2.69l-37.18,21.46L80.6,324.19c-1.12.64-5,3.45-5.09,4.56a5.63,5.63,0,0,0-.37.62c-1.31,2.46-.18,5.33,3.2,7.29,0,0,2.2,1.38,3.16,1.86,3.7,1.87,9.21,3.52,12,2.88.54-.09,1-.26,1.54-.37a31.2,31.2,0,0,0,4.91-2.31l34.62-22.53,3-1.94,31.66-20.61c1.25-.72,5.2-4,5.2-5.27,0-.36,2-2.6,2-3.75,1.75-3.21,6.16-9,3.76-12.21C180,271.35,180,268.3,179.62,268.08Z"/><path class="cls-110" d="M178.2,270.72c-.84.15-3.07-.27-3.85-.08-5.66.66-10.87,9-13.85,9.48a46.23,46.23,0,0,0-6.26,2.75l-35.35,20.41L83.45,323.74c-.84.48-5,3.3-5.06,4.14a5.34,5.34,0,0,0-.42.55c-1.51,2.27-.54,5,2.74,6.93,0,0,2.24,1.45,3,1.81,3.49,1.77,8.61,3.13,11.41,2.4.5-.1,1-.3,1.43-.4a40.91,40.91,0,0,0,4.58-2.33l32.73-21.4,2.81-1.83,29.92-19.56c.94-.55,5.16-3.85,5.16-4.81,0-.26,2.31-2.46,2.3-3.33,2-2.81,7.08-8.17,4.48-11.05C178.34,274.06,178.48,270.89,178.2,270.72Z"/><path class="cls-111" d="M176.77,273.36c-.94.16-2.8,0-3.67.18-6,1-11.09,7-13.79,8.17-.65,0-5.39,2.54-5.86,2.81l-33.53,19.36L86.3,323.29c-.56.32-5,3.16-5,3.71-.17.16-.32.33-.46.49-1.72,2.06-.91,4.74,2.27,6.58,0,0,2.28,1.51,2.76,1.75,3.27,1.68,8,2.74,10.81,1.93.47-.12.9-.34,1.34-.45s3.88-2.13,4.25-2.35l30.83-20.25,2.64-1.74,28.19-18.51c.62-.36,5.13-3.69,5.13-4.33,0-.17,2.59-2.34,2.59-2.92,2.25-2.4,8-7.36,5.19-9.89C176.71,276.77,177,273.47,176.77,273.36Z"/><path class="cls-112" d="M175.35,276c-1,.18-2.53.2-3.5.44-6.26,1.28-11.19,5.62-13.73,6.87-.32,0-5.22,2.73-5.46,2.86L121,304.48,89.14,322.84c-.28.16-5,3-5,3.29-.18.14-.35.28-.5.42-1.94,1.85-1.28,4.45,1.79,6.22,0,0,2.33,1.58,2.57,1.7,3,1.59,7.41,2.35,10.21,1.45a7.74,7.74,0,0,0,1.25-.49c.24,0,3.73-2.26,3.92-2.36L132.32,314l2.48-1.64,26.45-17.47c.31-.18,5.09-3.53,5.09-3.85,0-.09,2.88-2.22,2.88-2.51,2.51-2,8.91-6.55,5.91-8.74C175.09,279.48,175.45,276.06,175.35,276Z"/><path class="cls-113" d="M100.94,333.57l32.94-21.9,32.94-21.89c2.76-1.59,9.82-5.74,6.64-7.58l.47-3.56a50.58,50.58,0,0,0-17,6.26l-35,20.18L87,325.26c-2.76,1.59-2.41,4.37.78,6.21l2.37,1.65C93.36,335,98.18,335.16,100.94,333.57Z"/></g><path class="cls-114" d="M122.87,278.27a8.43,8.43,0,0,1-3.84,6.62c-2.12,1.23-3.83.25-3.83-2.19a8.46,8.46,0,0,1,3.83-6.62C121.16,274.86,122.87,275.84,122.87,278.27Z"/><path class="cls-115" d="M132.78,272.65a8.46,8.46,0,0,1-3.84,6.62c-2.12,1.23-3.84.25-3.84-2.19a8.47,8.47,0,0,1,3.84-6.62C131.06,269.24,132.78,270.22,132.78,272.65Z"/><path class="cls-116" d="M142.68,267a8.47,8.47,0,0,1-3.84,6.63c-2.12,1.22-3.84.24-3.84-2.19a8.47,8.47,0,0,1,3.84-6.63C141,263.62,142.68,264.6,142.68,267Z"/><path class="cls-117" d="M152.58,261.42a8.47,8.47,0,0,1-3.84,6.62c-2.12,1.22-3.84.24-3.84-2.19a8.46,8.46,0,0,1,3.84-6.62C150.86,258,152.58,259,152.58,261.42Z"/><path class="cls-118" d="M162.48,255.8a8.46,8.46,0,0,1-3.84,6.62c-2.12,1.22-3.84.24-3.84-2.19a8.46,8.46,0,0,1,3.84-6.62C160.76,252.38,162.48,253.36,162.48,255.8Z"/></g></g></svg>