<svg id="Layer_1" data-name="Layer 1" xmlns="http://www.w3.org/2000/svg" viewBox="0 0 512 512"><defs><style>.cls-1{fill:#527bbd;}.cls-2{fill:#4470b6;}.cls-3{fill:#223668;}.cls-4{fill:#231f20;}.cls-5{fill:#75b3e2;}.cls-6{fill:#f4a595;}.cls-7{fill:#e6836f;}.cls-8{fill:#74392b;}.cls-9{fill:#ddf0f6;}.cls-10{fill:#fff;}.cls-11{fill:#f6af12;}.cls-12{fill:#067981;}.cls-13{fill:#0b9099;}</style></defs><path class="cls-1" d="M399.65,371.24s-16.59-.54-32.94.25c-17,.82-33.72,3.07-31.33,8.93a6.2,6.2,0,0,1,.34,3.85c-3.41,15.66-65.34,27.38-79,17.76-10.2-7.17-38.31,2.05-49.83,7C185,262.25,184.35,112.17,203.77,101.73S277,104.51,277,104.51s27.28,7.22,38.4,81.83S399.65,371.24,399.65,371.24Z"/><path class="cls-2" d="M335.38,380.42a6.2,6.2,0,0,1,.34,3.85c-16.79-51.19-56.31-197.44-42-157.57,13.77,38.45,56.95,116.34,73,144.79C349.73,372.31,333,374.56,335.38,380.42Z"/><path class="cls-3" d="M201.74,140.55c-16,19.51-18.88,24.25-33.81,25.27a26.22,26.22,0,0,1,10,12.11H178c4.39,9.61,5,20.83,12.68,27.13l-9.17,9-2.34,2.35-.93-.83c-4-3.71-19.91-18.69-29.38-32.45-5.56-8-8.93-15.57-6.58-20.3,3.8-13.76,13.56-42,38.4-50.46,16.3-17.71,32.26-8.2,37.92-.83C226.19,121.42,218.58,142.5,201.74,140.55Z"/><path class="cls-4" d="M190.71,205.06l-9.17,9-3.27,1.52c-3.76-3.52-18.1-17-27.67-30.06-.58-.78-1.17-1.61-1.71-2.39,4.74-.05,20-.44,29.09-5.22H178a24.91,24.91,0,0,1,1,2.48C182.57,189.39,183.69,199.3,190.71,205.06Z"/><path class="cls-5" d="M179.05,180.41c-10.1,6.15-21.66,6-28.45,5.13-.58-.78-1.17-1.61-1.71-2.39,4.74-.05,20-.44,29.09-5.22H178A24.91,24.91,0,0,1,179.05,180.41Z"/><path class="cls-4" d="M183.84,196.73s10.45,1,13.61,3.72a4.17,4.17,0,0,1,1,5.17c5.63,3.16,0,15.43-9.82,18.46s-16.25-15.47-16.25-15.47S173.9,197.39,183.84,196.73Z"/><path class="cls-4" d="M315.71,494.45H280.25a4.22,4.22,0,0,1-1.59-1.42c-1.82-26.37-4.45-39.07-4.45-39.07l24.69-1,5.59,19.62C312.77,478.23,322.63,490.36,315.71,494.45Z"/><path class="cls-4" d="M277.57,494.93h42c1.07,0,.71-5.85-.35-5.85l-41.79.24C276.36,489.32,276.47,494.93,277.57,494.93Z"/><path class="cls-3" d="M262.92,213.58c5.73,15.44,30.15,86.17,23.18,137.09,9.59,33.86,6.58,62.54,15.22,112L276.16,464c-10.23-60.35-21.49-48.83-24.75-108.59-20.74-46.85-31.49-91.24-37-136.94C209,184,251.33,165.92,262.92,213.58Z"/><path class="cls-4" d="M276.42,466.57s-1.89-18-13.73-52.27C259,403.76,257,396.79,256,392.49a46,46,0,0,1-1.17-6A178.29,178.29,0,0,0,276,355.31c7.7,12.05,16.87,24.1,16.87,24.1s.23,2.83.65,7.47c1.85,19.42,6.85,70.76,9.86,81.64C307.12,482,283.72,489.65,276.42,466.57Z"/><path class="cls-5" d="M293.54,386.88a196.68,196.68,0,0,1-17.31-22.16c-2.75,10-14.27,22-20.24,27.77a46,46,0,0,1-1.17-6A178.29,178.29,0,0,0,276,355.31c7.7,12.05,16.87,24.1,16.87,24.1S293.12,382.24,293.54,386.88Z"/><path class="cls-3" d="M233.15,220.12a778,778,0,0,1-13.76,124.36c5.08,45.87-6.47,54.42-11.68,120l-22.75-.3c-.05-26.64-1.6-59.63-3.22-113-14.32-55.82-7.42-96.93-2.08-130.3C185.36,183,236.79,170.44,233.15,220.12Z"/><path class="cls-4" d="M207.71,464.53c2,10.87,3.49,19.35,2.63,29.18l-55.09,1.07s-5.45-5.31,1.41-13.27,19.87-3.36,28.3-17.28Z"/><path class="cls-4" d="M152.75,494.93h58.53c1.07,0,.79-5.85-.28-5.85l-58.28.24C151.62,489.32,151.66,494.93,152.75,494.93Z"/><path class="cls-4" d="M218.65,390.34s-.39,2-1.06,5.27c-2.77,14.5-10.21,54.95-9.34,73.15-10.34,12.35-23.78-1.36-23.78-1.36l-5.42-100-.37-6.74A124.57,124.57,0,0,0,218.65,390.34Z"/><path class="cls-5" d="M218.65,390.34s-.39,2-1.06,5.27c-20.1-5.85-32.47-19.61-38.54-28.2l-.37-6.74A124.57,124.57,0,0,0,218.65,390.34Z"/><path class="cls-3" d="M181.36,216.94c0,11.63,82.57,8.27,82.57-3.36a169.07,169.07,0,0,1,6-48c24.76-24.25,23.28-43.08,17-53.29-10.82-17.61-65.47-16.61-85.14-9-7.82,3-18.31,15.25-21.67,34.77-1.72,10,5.67,21.73,6.84,29.85C189.65,186.61,181.91,214.25,181.36,216.94Z"/><path class="cls-6" d="M232.83,111.21c4.08-3.24,20.33-8.23,24.65-11.77l-1-28.22-16-1.55a47.16,47.16,0,0,0-13.26,3.07l-3.6,18.57-.79,4C221.07,99.31,224.66,104.09,232.83,111.21Z"/><path class="cls-7" d="M251.13,77.61c-2.51,3.86-13,13.74-27.46,13.7l3.12-16.07Z"/><path class="cls-6" d="M215.76,40.45c-1.25,5.56-3.84,17.76-3.41,23.38.64,8.55,8.63,18,15.6,19.29,8.07.82,18.94-1.58,24.85-6.65,3.28-3.86,9.64-13,12.57-21,6.11-16.68-5.68-31.31-20.63-34.69S219.67,23.12,215.76,40.45Z"/><path class="cls-8" d="M260.36,66.5c3.12-5.49-1-7.71-5.57-3.45.78-4.14,5.5-16.28,1.32-20.3-4.72-4.67-25.51-2.64-36.68-14.28,0,0,8.33-18.25,35.65-7.47C285.93,37.36,260.36,66.5,260.36,66.5Z"/><ellipse class="cls-6" cx="260.55" cy="64.59" rx="6.73" ry="5.23" transform="translate(44.36 223.71) rotate(-50.28)"/><path class="cls-3" d="M223.79,89.69c2.73,4.87,30.83,2.34,33.36-1.76l1.56,15.61-26.14,14.83-13.66-15Z"/><path class="cls-4" d="M270,37.89C269.19,24.23,242.75,5,223.78,12.11c-12.79,4.83-9.79,18.41,1.35,21C235,35.34,262.15,23.57,270,37.89Z"/><path class="cls-4" d="M221.42,12.15a17.53,17.53,0,0,1,2.67-6.81c-14.84,9.73-7.46,21.35-7.28,21.85,5.88-17.87,19.93-17,24.91-17C228.89,4.16,221.55,11.62,221.42,12.15Z"/><path class="cls-5" d="M180.33,220.89c21.54,9.29,71.3,7.24,86.17.13l3.81,12.59c-32.36,7.63-63.32,7.85-92.71-.23Z"/><path class="cls-3" d="M324.47,191.35C310.22,206.62,280.16,224,280.16,224l-9.22-13.27c9.56-5.27,14.83-18.94,24-28.31a32.26,32.26,0,0,1,11-7.66c-14.54-3.76-21.86-7.37-34-29.47C255,144.16,251.32,122,260.54,113.76c6.93-6.2,24.4-12.69,37.19,7.71,22.84,12.83,32.6,40.84,33.82,55.09C332.67,180.61,329.59,185.83,324.47,191.35Z"/><path class="cls-4" d="M279.21,203.82s-10.46-1-14.07,1.17a4.18,4.18,0,0,0-2,4.89c-6.1,2.08-2.82,15.17,6.29,20s18.81-12.24,18.81-12.24S288.86,206.28,279.21,203.82Z"/><path class="cls-4" d="M324.47,191.35c-.88.92-1.8,1.9-2.78,2.82-15,14.55-41.53,29.87-41.53,29.87l-9.22-13.27c8.25-4.54,13.27-15.28,20.35-24.16a49.22,49.22,0,0,1,3.61-4.15A69.81,69.81,0,0,0,324.47,191.35Z"/><path class="cls-5" d="M324.47,191.35c-.88.92-1.8,1.9-2.78,2.82-12.88-.63-25-5.26-30.4-7.56a49.22,49.22,0,0,1,3.61-4.15A69.81,69.81,0,0,0,324.47,191.35Z"/><path class="cls-9" d="M240.79,134.44h0v0Z"/><path class="cls-9" d="M240.79,134.44h0v0Z"/><path class="cls-9" d="M215,130.74v0Z"/><path class="cls-9" d="M215,130.74v0Z"/><path class="cls-10" d="M228.79,124.75a26.35,26.35,0,0,0,12,9.71c0,.38-.29,2.5-1.44,12.27-1.53,13-13.41,17.75-15.26,18.47-1.56-1.11-12-9.13-10.5-22.17,1.14-9.77,1.39-11.89,1.44-12.27A24.49,24.49,0,0,0,228.79,124.75Z"/><path class="cls-11" d="M227.44,131.67h0a19.67,19.67,0,0,1-9.24,3.83l-1,8.33a15.34,15.34,0,0,0,2.87,10.82,20.2,20.2,0,0,0,4,4.27l.12.1a19.1,19.1,0,0,0,5-3.05,14.61,14.61,0,0,0,5.28-9.65l1-8.34A20.93,20.93,0,0,1,227.44,131.67Z"/><path class="cls-5" d="M220.37,99.17c1.4,3.61,6.08,6.78,11.35,9.87a74.87,74.87,0,0,0,27-9.77c7.91,0,13.59,3,19.44,5.25l-46.67,7.6L204,101.77C207.67,100.44,212.89,99.54,220.37,99.17Z"/><path class="cls-9" d="M380.73,196h0v0Z"/><path class="cls-9" d="M380.73,196h0v0Z"/><path class="cls-9" d="M243,197.56v0Z"/><path class="cls-9" d="M243,197.56v0Z"/><path class="cls-10" d="M311.35,159.46c16.16,17,41.86,30.86,69.3,36.66,0,1.82.13,11.91.65,58.43.69,62.05-58.44,92.77-67.62,97.48-8.95-4-69.23-33.91-69.92-96-.52-46.52-.63-56.61-.65-58.43C270.41,191.23,295.57,176.82,311.35,159.46Z"/><path class="cls-12" d="M311.59,170.67c15.81,14.25,37.65,25.39,61.63,31.38l.59,52.57c.27,24.06-9.19,45.89-28.11,64.88a136.33,136.33,0,0,1-32.2,23.76l-.91-.46-1.14-172Z"/><path class="cls-13" d="M311.45,170.8l1.14,172a136.7,136.7,0,0,1-31.8-22.58C261.45,301.65,251.51,280,251.25,256l-.59-52.57C274.44,196.9,296,185.33,311.45,170.8Z"/><path class="cls-10" d="M284.14,246.76l.26,40.74c0,4.53,55.67,4.17,55.64-.37l-.27-40.73Zm21,15.24a6.88,6.88,0,1,1,9.73,6.17l.08,11.57a2.82,2.82,0,0,1-5.63,0l-.08-11.55A6.83,6.83,0,0,1,305.18,262Z"/><path class="cls-10" d="M289,243.83l5.63,0,0-2.74a17.32,17.32,0,0,1,34.63-.23l0,2.74,5.63,0,0-2.74a22.95,22.95,0,0,0-45.89.3Z"/></svg>