<svg xmlns="http://www.w3.org/2000/svg" xmlns:xlink="http://www.w3.org/1999/xlink" viewBox="0 0 512 512"><defs><style>.cls-1{fill:none;}.cls-2{isolation:isolate;}.cls-3{fill:url(#linear-gradient);}.cls-4{clip-path:url(#clip-path);}.cls-5{fill:#fdfeff;}.cls-6{fill:url(#linear-gradient-2);}.cls-7{clip-path:url(#clip-path-2);}.cls-8{fill:url(#linear-gradient-3);}.cls-9{fill:url(#linear-gradient-4);}.cls-10{fill:url(#linear-gradient-5);}.cls-11{fill:#fff;}.cls-12,.cls-40,.cls-42,.cls-46{mix-blend-mode:multiply;}.cls-12,.cls-40{opacity:0.3;}.cls-12{fill:url(#linear-gradient-6);}.cls-13{fill:url(#linear-gradient-7);}.cls-14{fill:#d8dee8;}.cls-15{clip-path:url(#clip-path-3);}.cls-16{fill:url(#linear-gradient-8);}.cls-17{fill:url(#linear-gradient-9);}.cls-18{fill:url(#linear-gradient-10);}.cls-19{fill:url(#linear-gradient-11);}.cls-20{fill:url(#linear-gradient-12);}.cls-21{fill:url(#linear-gradient-13);}.cls-22{clip-path:url(#clip-path-4);}.cls-23{fill:url(#linear-gradient-14);}.cls-24{fill:url(#linear-gradient-15);}.cls-25{fill:url(#linear-gradient-16);}.cls-26{fill:url(#linear-gradient-17);}.cls-27{fill:url(#linear-gradient-18);}.cls-28{fill:url(#linear-gradient-19);}.cls-29{fill:url(#linear-gradient-20);}.cls-30{clip-path:url(#clip-path-5);}.cls-31{fill:url(#linear-gradient-21);}.cls-32{fill:url(#linear-gradient-22);}.cls-33{fill:url(#linear-gradient-23);}.cls-34{fill:url(#linear-gradient-24);}.cls-35{fill:url(#linear-gradient-25);}.cls-36{fill:url(#linear-gradient-26);}.cls-37{fill:url(#linear-gradient-27);}.cls-38{fill:url(#linear-gradient-28);}.cls-39{fill:url(#linear-gradient-29);}.cls-40{fill:url(#linear-gradient-30);}.cls-41{fill:url(#linear-gradient-31);}.cls-42{opacity:0.2;}.cls-43{fill:url(#linear-gradient-32);}.cls-44{fill:url(#linear-gradient-33);}.cls-45{fill:url(#linear-gradient-34);}.cls-46{opacity:0.1;fill:url(#linear-gradient-35);}.cls-47{fill:url(#linear-gradient-36);}.cls-48{fill:url(#linear-gradient-37);}</style><linearGradient id="linear-gradient" x1="875.78" y1="-195.18" x2="677.88" y2="-537.38" gradientTransform="translate(-702.33 142.93) rotate(25.35)" gradientUnits="userSpaceOnUse"><stop offset="0" stop-color="#9080ba"/><stop offset="1" stop-color="#5961a9"/></linearGradient><clipPath id="clip-path"><path class="cls-1" d="M183.7,208.3c3.1-5.64,29.2-42.78,25.1-57.62-4.67-16.9-16.85-18.3-9.89-33,10.88-23,5.59-53-31.06-50.68-36.18,2.31-56.78,93.93-43.6,123.09,5.6,29.74,17.3,39.47-.08,69.93C112,281.34,172,229.52,183.7,208.3Z"/></clipPath><linearGradient id="linear-gradient-2" x1="-90.23" y1="429.22" x2="19.24" y2="609.44" gradientTransform="matrix(-0.4, 0.91, 0.91, 0.4, -350.68, 60.79)" gradientUnits="userSpaceOnUse"><stop offset="0" stop-color="#cc90bf"/><stop offset="1" stop-color="#7c6fb1"/></linearGradient><clipPath id="clip-path-2"><path class="cls-1" d="M142.57,290.56c-17.34,2.48-36.91,5.37-40.16-18.13-2.7-19.57-3.55-32.76-23.36-44s-30.53-32.8-16.52-50.71c14.74-18.86,5.89-53.72,29.14-63,40.52-16.2,41.24,43.78,36.64,75.39s18.7,24.82,38.11,30.24C192.92,227.7,156.58,288.56,142.57,290.56Z"/></clipPath><linearGradient id="linear-gradient-3" x1="129.81" y1="465.83" x2="348.38" y2="48" gradientUnits="userSpaceOnUse"><stop offset="0" stop-color="#444c8d"/><stop offset="1" stop-color="#26274f"/></linearGradient><linearGradient id="linear-gradient-4" x1="136.26" y1="465.83" x2="354.83" y2="48" gradientUnits="userSpaceOnUse"><stop offset="0" stop-color="#fcc345"/><stop offset="1" stop-color="#ee7058"/></linearGradient><linearGradient id="linear-gradient-5" x1="315.71" y1="185.83" x2="-64.73" y2="606.68" xlink:href="#linear-gradient-4"/><linearGradient id="linear-gradient-6" x1="93.4" y1="273.85" x2="323.3" y2="273.85" xlink:href="#linear-gradient-4"/><linearGradient id="linear-gradient-7" x1="310.36" y1="354.18" x2="418.13" y2="354.18" xlink:href="#linear-gradient-3"/><clipPath id="clip-path-3"><path class="cls-1" d="M414.62,353c0,25.34-20.26,47.29-45.67,49-25.89,1.79-47.23-18-47.23-44.19s21.34-48.2,47.23-49.12C394.36,307.78,414.62,327.61,414.62,353Z"/></clipPath><linearGradient id="linear-gradient-8" x1="385.27" y1="318.48" x2="370.37" y2="364.65" gradientUnits="userSpaceOnUse"><stop offset="0" stop-color="#ac336e"/><stop offset="1" stop-color="#7a2e3e"/></linearGradient><linearGradient id="linear-gradient-9" x1="317.88" y1="395.65" x2="418.21" y2="395.65" gradientUnits="userSpaceOnUse"><stop offset="0" stop-color="#f28e86"/><stop offset="1" stop-color="#e874aa"/></linearGradient><linearGradient id="linear-gradient-10" x1="367.53" y1="359.44" x2="367.73" y2="396.91" gradientUnits="userSpaceOnUse"><stop offset="0" stop-color="#ee7058"/><stop offset="1" stop-color="#fcc345"/></linearGradient><linearGradient id="linear-gradient-11" x1="372.84" y1="305.56" x2="364.21" y2="363.73" xlink:href="#linear-gradient-10"/><linearGradient id="linear-gradient-12" x1="374.39" y1="314.71" x2="359.01" y2="362.41" xlink:href="#linear-gradient-8"/><linearGradient id="linear-gradient-13" x1="342.06" y1="220.25" x2="446.32" y2="220.25" xlink:href="#linear-gradient-3"/><clipPath id="clip-path-4"><path class="cls-1" d="M443,219.69c0,24.94-19.61,45.72-44.2,46.44-25,.73-45.67-19.56-45.67-45.32s20.63-46.57,45.67-46.46C423.43,174.45,443,194.75,443,219.69Z"/></clipPath><linearGradient id="linear-gradient-14" x1="349.45" y1="259.92" x2="446.52" y2="259.92" xlink:href="#linear-gradient-8"/><linearGradient id="linear-gradient-15" x1="397.35" y1="224.37" x2="397.53" y2="260.29" xlink:href="#linear-gradient-10"/><linearGradient id="linear-gradient-16" x1="402.64" y1="174.83" x2="393.57" y2="230.82" xlink:href="#linear-gradient-10"/><linearGradient id="linear-gradient-17" x1="397.88" y1="186.43" x2="393.44" y2="213.84" xlink:href="#linear-gradient-3"/><linearGradient id="linear-gradient-18" x1="416.83" y1="177.16" x2="407.79" y2="232.97" xlink:href="#linear-gradient-10"/><linearGradient id="linear-gradient-19" x1="389.34" y1="172.68" x2="380.25" y2="228.78" xlink:href="#linear-gradient-10"/><linearGradient id="linear-gradient-20" x1="250.95" y1="117.29" x2="359.29" y2="117.29" xlink:href="#linear-gradient-3"/><clipPath id="clip-path-5"><path class="cls-1" d="M355.74,118.57a45.25,45.25,0,0,1-45.91,45.52A48.26,48.26,0,0,1,262.36,116a45.19,45.19,0,0,1,47.47-45.48A48.35,48.35,0,0,1,355.74,118.57Z"/></clipPath><linearGradient id="linear-gradient-21" x1="376.34" y1="8.32" x2="247.99" y2="251.4" xlink:href="#linear-gradient-8"/><linearGradient id="linear-gradient-22" x1="308.97" y1="150.51" x2="304.09" y2="237.73" xlink:href="#linear-gradient-3"/><linearGradient id="linear-gradient-23" x1="308.41" y1="121.39" x2="308.6" y2="158.66" xlink:href="#linear-gradient-10"/><linearGradient id="linear-gradient-24" x1="313.68" y1="67.6" x2="305.09" y2="125.49" xlink:href="#linear-gradient-10"/><linearGradient id="linear-gradient-25" x1="334.37" y1="58.11" x2="285.74" y2="150.19" xlink:href="#linear-gradient-8"/><linearGradient id="linear-gradient-26" x1="159.72" y1="333.75" x2="162.55" y2="291.58" gradientUnits="userSpaceOnUse"><stop offset="0.1" stop-color="#311b44"/><stop offset="0.27" stop-color="#371d47"/><stop offset="0.48" stop-color="#462250"/><stop offset="0.71" stop-color="#612b5f"/><stop offset="0.97" stop-color="#853774"/><stop offset="1" stop-color="#8a3977"/></linearGradient><linearGradient id="linear-gradient-27" x1="143.84" y1="303.37" x2="176.23" y2="320.74" xlink:href="#linear-gradient-26"/><linearGradient id="linear-gradient-28" x1="97.79" y1="357.6" x2="79.27" y2="188.33" gradientUnits="userSpaceOnUse"><stop offset="0.1" stop-color="#311b44"/><stop offset="0.69" stop-color="#6e3067"/><stop offset="1" stop-color="#8a3977"/></linearGradient><linearGradient id="linear-gradient-29" x1="178.36" y1="427.83" x2="55.73" y2="359.55" gradientUnits="userSpaceOnUse"><stop offset="0" stop-color="#311b44"/><stop offset="1" stop-color="#8a3977"/></linearGradient><linearGradient id="linear-gradient-30" x1="67.7" y1="332.83" x2="104.68" y2="394.84" xlink:href="#linear-gradient-29"/><linearGradient id="linear-gradient-31" x1="161.92" y1="258.86" x2="175.41" y2="439.87" xlink:href="#linear-gradient-28"/><linearGradient id="linear-gradient-32" x1="137.97" y1="361.33" x2="237.28" y2="437.84" xlink:href="#linear-gradient-29"/><linearGradient id="linear-gradient-33" x1="112.38" y1="350.94" x2="154.2" y2="349.32" xlink:href="#linear-gradient-28"/><linearGradient id="linear-gradient-34" x1="177.48" y1="491.22" x2="162.95" y2="328.03" xlink:href="#linear-gradient-26"/><linearGradient id="linear-gradient-35" x1="184.55" y1="529.07" x2="159.93" y2="303.94" xlink:href="#linear-gradient-29"/><linearGradient id="linear-gradient-36" x1="219.28" y1="410.44" x2="145.02" y2="371.62" xlink:href="#linear-gradient-4"/><linearGradient id="linear-gradient-37" x1="152.7" y1="377.59" x2="228.5" y2="404.71" xlink:href="#linear-gradient-4"/></defs><g class="cls-2"><g id="Layer_1" data-name="Layer 1"><path class="cls-3" d="M124.7,258.32c-3.06,4.84-6.11,8.47-9.32,13.06,23.74,4.22,45.85,12.64,69.91,17-8.79-30.26-20.37-45.4-2.89-77.49,8.2-15.06,28.78-42.34,26.07-59.58-3.08-19.65-17-18.18-9.71-33.37,11.33-23.76,5.61-53.12-30.94-50.88-36.08,2.22-56.76,93.74-43.6,123.22C130.38,217.59,140.65,233.05,124.7,258.32Z"/><g class="cls-4"><path class="cls-5" d="M152.68,277.41l-.46,0c.29-8.88-.12-17.9-.52-26.63l-.15-3.3c-.31-7-.46-13.29-.59-18.83-.08-3.12-.15-6.06-.24-8.91-.28-8.74-.49-14.85-.6-17.88,0-1-.06-1.68-.07-2-.76-23.91,7-56.69,11.16-74.3.45-1.9.86-3.61,1.2-5.08a366.62,366.62,0,0,0,9-80h.45a366.4,366.4,0,0,1-9,80.09c-.34,1.46-.74,3.17-1.19,5.08-4.17,17.59-11.91,50.33-11.15,74.18,0,.3,0,1,.07,2,.1,3,.32,9.14.6,17.87.09,2.86.16,5.8.24,8.92.13,5.54.28,11.81.59,18.82l.15,3.3C152.55,259.47,153,268.5,152.68,277.41Z"/><path class="cls-5" d="M150.91,233.2h-.46c.25-15.83,6.91-34.32,19.28-53.47a199,199,0,0,1,38.37-43.5l.29.35A198.78,198.78,0,0,0,170.11,180C157.79,199.06,151.15,217.47,150.91,233.2Z"/><path class="cls-5" d="M160.93,128.59l-.41-.22c6.38-12.11,14.32-23.49,22-34.49,5.25-7.53,10.69-15.31,15.58-23.27l.39.24c-4.9,8-10.34,15.76-15.6,23.29C175.22,105.14,167.29,116.5,160.93,128.59Z"/><path class="cls-5" d="M152,171.92c-3-18.79-15.62-42.57-26.93-50.9l.27-.37c11.39,8.39,24.06,32.31,27.11,51.2Z"/></g><path class="cls-6" d="M128.51,189.67c-3.75,29.12,14,28.61,36.62,28.94-12.23,24.46-23.24,48.72-34.32,73.39-15.16-.45-26-1.05-28.39-19.31-2.7-20.64-3.58-32.64-23.37-44.22s-30.59-32.7-16.51-50.79c14.82-19,5.72-53.46,29.14-63C132.48,98,132.4,159.34,128.51,189.67Z"/><g class="cls-7"><path class="cls-5" d="M140.08,258.68c-17.6-17.41-31.77-32.4-40.81-53.52-8.65-20.22-9.77-39.21-3.77-63.5,3.12-12.59,3.92-22,4.8-34.82l.46,0c-.88,12.88-1.69,22.28-4.81,34.9C90,166,91.09,184.86,99.69,205c9,21,23.15,36,40.71,53.38Z"/><path class="cls-5" d="M101.87,283.41l-.24-.39a78.8,78.8,0,0,1,21.12-9.37,51.06,51.06,0,0,1,11.55-1.54l0,.46a50.11,50.11,0,0,0-11.45,1.52A78.69,78.69,0,0,0,101.87,283.41Z"/><path class="cls-5" d="M105.52,217.69c-13.27-13.18-32.39-21.79-53.86-24.25l.05-.45c21.57,2.47,40.79,11.12,54.13,24.37Z"/><path class="cls-5" d="M92.15,168.55l-.44-.1c.46-2.15,9.1-18.54,17-33.15s16.74-30.36,17.63-31.22l.31.33c-.75.73-8.62,14.68-17.54,31.11C101.23,150.1,92.6,166.44,92.15,168.55Z"/></g><path class="cls-8" d="M376.77,269.21c0,75.88-61.49,140.21-139.94,143.8C155.35,416.73,87,354,87,272.71S155.35,127,236.83,128.79C315.28,130.48,376.77,193.33,376.77,269.21Z"/><path class="cls-9" d="M383.22,269.21c0,75.88-61.49,140.21-139.94,143.8C161.8,416.73,93.4,354,93.4,272.71S161.8,127,243.28,128.79C321.73,130.48,383.22,193.33,383.22,269.21Z"/><path class="cls-10" d="M375.14,269.31c0,71.5-58,132-131.86,135.22-76.54,3.35-140.65-55.67-140.65-131.93s64.11-136.83,140.65-135.33C317.13,138.71,375.14,197.81,375.14,269.31Z"/><path class="cls-11" d="M280.51,298.74a24.66,24.66,0,0,0-18.6,8.44l-72.37-33.36a24.56,24.56,0,0,0,.41-4.48,25,25,0,0,0-.46-4.77l71.68-34a24.73,24.73,0,1,0-5.4-15.42,23.81,23.81,0,0,0,.12,2.4L183,252.14a24.74,24.74,0,1,0,.19,34.19L256,319.91a24.74,24.74,0,1,0,24.48-21.17Z"/><path class="cls-12" d="M180.13,209.33c-4.82-15.7-4.6-39.56,18.9-74.8C138.41,152,93.4,207,93.4,272.71c0,81.27,68.4,144,149.88,140.3a147.67,147.67,0,0,0,80-27.9c-.69-21.68-5.41-45.4-18.67-67.29C268.17,257.65,195.24,258.6,180.13,209.33Z"/><path class="cls-13" d="M365.29,408.24c-30,2.16-54.93-20.81-54.93-51.24s24.9-56,54.93-57c29.39-1,52.84,22.08,52.84,51.36S394.68,406.14,365.29,408.24Z"/><path class="cls-14" d="M369,409.46c-30,2.16-54.93-20.81-54.93-51.25s24.9-56,54.93-57c29.38-1,52.84,22.08,52.84,51.36S398.33,407.36,369,409.46Z"/><path class="cls-11" d="M418.21,352.77c0,27.33-21.84,51-49.26,53-28,2-51.07-19.38-51.07-47.72S341,305.91,369,305C396.37,304,418.21,325.43,418.21,352.77Z"/><g class="cls-15"><path class="cls-16" d="M362.92,320.72c-8.89.31-17.31,5.8-21.06,12.9-4.5,8.56,1.52,12.29-1.42,25.91-2.71,12.55-9,15.06-8,23.12,1.15,8.81,9.78,13.9,13.2,15.92C361,407.62,385,405.69,397.19,392c1-1.14,9.43-10.62,7.16-18.69-2-7.23-10.75-6.72-12.55-14.25-1.55-6.48,4.4-9,3.83-18.51-.11-1.86-.63-10.66-7.26-14.31-4.41-2.44-9.26-1.34-11-.84A23.25,23.25,0,0,0,362.92,320.72Z"/><path class="cls-17" d="M317.88,392.64s44.86-29.08,100.33-6.47c0,0-7.06,22.88-49.26,27.07C325.43,417.55,317.88,392.64,317.88,392.64Z"/><path class="cls-18" d="M361,355.76l-1.68,12.63a12.33,12.33,0,0,1-7.6,9.71L338,383.6s26.17,10.94,59.23-3.78l-15.07-4.3a10.58,10.58,0,0,1-7.38-9.8l-.43-10.66Z"/><path class="cls-19" d="M381.39,343.64c0,10.57-6.36,22.28-14.24,22.73s-14.4-10.67-14.4-21.34,6.46-16.8,14.4-17.13S381.39,333.07,381.39,343.64Z"/><path class="cls-20" d="M373.45,334.46c-4.28.42-10.77,1.75-15.26,6.68-7.55,8.29-4,20.65-7.32,21.57-3,.83-7.62-7.86-7.55-17.67.07-8.21,2.87-18,10.18-20.75,4.29-1.61,5.56.66,19.4,1.44,8.06.46,4.9,4.21,6.71,5.48,8.06,5.64,7,25.41,2.7,25.89C380.26,357.33,377.42,352.32,373.45,334.46Z"/></g><path class="cls-21" d="M395.18,273.47c-29,.93-53.12-22.65-53.12-52.57s24.08-54.1,53.12-53.89c28.44.19,51.14,23.79,51.14,52.59S423.62,272.57,395.18,273.47Z"/><path class="cls-14" d="M398.84,273.47c-29,.93-53.12-22.65-53.12-52.57S369.8,166.8,398.84,167C427.28,167.2,450,190.8,450,219.6S427.28,272.57,398.84,273.47Z"/><path class="cls-11" d="M446.52,219.65c0,26.89-21.14,49.34-47.68,50.15-27.06.83-49.39-21.08-49.39-49s22.33-50.32,49.39-50.17C425.38,170.83,446.52,192.75,446.52,219.65Z"/><g class="cls-22"><path class="cls-23" d="M349.45,255s43.39-26.83,97.07-2.4c0,0-6.84,22.23-47.68,24.68C356.75,279.82,349.45,255,349.45,255Z"/><path class="cls-24" d="M391.15,220.34l-1.63,12.35c-.47,7.85-8.09,11-8.09,11,8.95,10.61,26.05,9.81,32-.57-4.14-1.49-8.77-7.88-9-12.4l-.42-10.51Z"/><path class="cls-25" d="M410.88,209.22c0,10.4-6.15,21.67-13.78,21.79s-13.93-11-13.93-21.56,6.26-16.26,13.93-16.28S410.88,198.82,410.88,209.22Z"/><path class="cls-26" d="M382.76,212.11l2.3-.39c-.35-.86-1.8-4.65,0-8s5.81-4.79,8.93-4.59c3.54.22,5.66,1.87,7.43.58a4.32,4.32,0,0,0,1.44-3.07,9.7,9.7,0,0,0,.71,2.69c1.32,3.06,3.55,3.69,4.77,5.71.82,1.36,1.35,3.64,0,7.68l2-.14a57.05,57.05,0,0,0,2.09-9.41c.79-5.83,1.33-9.85-.9-11.8-.45-.39-2.42-1.93-7.13-.46a16.2,16.2,0,0,0-7-4.39c-1.24-.37-7.39-2.22-12.84,1.79-3.71,2.72-6.62,7.81-5.68,12,.49,2.22,1.84,3.21,3,7.5A28.5,28.5,0,0,1,382.76,212.11Z"/><path class="cls-27" d="M409,213.07s.88-4.56,3.57-4.13-1.16,7.93-3.57,8.85Z"/><path class="cls-28" d="M384.9,213.31s-.9-4.59-3.64-4.11,1.18,8,3.64,8.87Z"/></g><path class="cls-29" d="M306.17,171.58C276,171.34,251,146.31,251,115.8a52.49,52.49,0,0,1,55.22-52.75c29.54,1.38,53.12,26.37,53.12,55.72A52.58,52.58,0,0,1,306.17,171.58Z"/><path class="cls-14" d="M309.83,171.58c-30.18-.24-55.22-25.27-55.22-55.78a52.49,52.49,0,0,1,55.22-52.75C339.37,64.43,363,89.42,363,118.77A52.58,52.58,0,0,1,309.83,171.58Z"/><path class="cls-11" d="M359.35,118.67a48.89,48.89,0,0,1-49.52,49.17,52.14,52.14,0,0,1-51.34-51.93,48.83,48.83,0,0,1,51.34-49.12A52.25,52.25,0,0,1,359.35,118.67Z"/><g class="cls-30"><path class="cls-31" d="M272.37,150.69c-2.71-7.88,7.49-10.57,8.78-28.9.09-1.25,1.82-26.29,5.67-31.1a10.64,10.64,0,0,1,1.08-1.15c1.93-1.49,4.9-1.31,15.52-5.74,9.11-3.8,8.58-3.69,9.76-3.91,6.84-1.26,17,5,20.29,13.37,3,7.49-.6,13.89,4.75,27.07h0c6.64,19,9.95,28.43,6.95,34.38C336.05,172.8,278.47,168.37,272.37,150.69Z"/><path class="cls-32" d="M258.49,150.63s45.11-25.57,100.86,1.53c0,0-7.1,22.37-49.52,23.2C266.08,176.21,258.49,150.63,258.49,150.63Z"/><path class="cls-33" d="M301.84,117.1l-1.69,12.52a11.13,11.13,0,0,1-7.65,9.13l-13.75,4.42s26.31,13.07,59.55,1l-15.15-5.51a11.75,11.75,0,0,1-7.42-10.42l-.44-10.73Z"/><path class="cls-34" d="M322.34,106.58c0,10.59-6.39,21.83-14.32,21.64s-14.47-11.84-14.47-22.54,6.5-16.32,14.47-16S322.34,96,322.34,106.58Z"/><path class="cls-35" d="M293.07,112.57c1.37,0-.61-11.21,4.72-14.15,3.53-2,9.67.09,13.12,3.81,5.44,5.88,2.39,14,6.51,15.89,2.62,1.19,6.11-1.08,7.78-2.76,5.22-5.26,4.51-16.7-1.66-23.33a19.16,19.16,0,0,0-13.19-5.72c-9.1-.25-17.45,6.24-19.36,14.14C289.52,106.52,292.05,112.59,293.07,112.57Z"/></g><path class="cls-11" d="M179.36,299.87s9.95,3.35,11,19.83c-1.62-.14-5.41-.06-5.41-.06s.7-12-6.39-14.41A26.06,26.06,0,0,0,179.36,299.87Z"/><path class="cls-36" d="M142.44,298.3l.75,9.11c5-1.29,10.48-2.79,16.34-3a74.55,74.55,0,0,1,20.69,2.21,6.77,6.77,0,0,0,1.12-2.76,9.3,9.3,0,0,0-.43-4.75,64.09,64.09,0,0,0-10.19-2.82C160.21,294.3,150.67,296,142.44,298.3Z"/><path class="cls-37" d="M142,300.92c0-1.1.1-2.46.48-2.62s.82.85,1,1.41a8.54,8.54,0,0,1,.39,2.56,13.58,13.58,0,0,1-.18,4.09c-.1.41-.25,1-.48,1.05s-.33-.39-.57-1.16A17.73,17.73,0,0,1,142,300.92Z"/><path class="cls-11" d="M132.69,320c2.12.42,7.24,1.64,7.24,1.64s-3.34-10.7,3-15.54a11.37,11.37,0,0,0,.13-3.61,11,11,0,0,0-.76-2.81C139.59,301.13,133.77,306.11,132.69,320Z"/><path class="cls-38" d="M88.55,322.36s.26-5.66,9.23-5.56c1.41,1.05,1.48,5.67,1.48,5.67Z"/><path class="cls-39" d="M80.55,433.87l24.56,14.49,14.75-54.73L95.5,320.39l-7,2L78,428.1A6,6,0,0,0,80.55,433.87Z"/><path class="cls-40" d="M119.86,393.63,95.5,320.39l-7,2c1.71,6.51,2.53,17.07,2.92,22.95,1.64,25,7.1,32,4.46,49.4-2.2,14.52-7,16.54-6.58,26.3.45,10.63,6.63,19.43,14,26.29l1.8,1.06Z"/><polygon class="cls-41" points="95.5 320.39 226.15 321.75 246 434.27 105.11 448.36 95.5 320.39"/><g class="cls-42"><path class="cls-43" d="M226.15,321.76,183,321.3a80,80,0,0,1-3.82,9.2c-19.61,39.85-65.18,45-64.35,51.63,1.24,9.93,101.34-4.45,103.83,8.86,1.21,6.42-19.5,21.26-41.37,27.09-26.47,7.06-46.14-1.19-59.32,14.21a36.57,36.57,0,0,0-7.43,15.44L246,434.27Z"/></g><path class="cls-44" d="M97.78,316.8a10.37,10.37,0,0,0-5.94,1.11,9,9,0,0,0-1.32.92l1.07-.37a4.42,4.42,0,0,1,5,1.94c1.08,2.13,1.47,7,1.7,9.45.67,6.89,4.8,49.76,4.8,49.76.31,3.61,3,6.33,6.25,6.25l121-6.91a4.15,4.15,0,0,0,2.51-.9,5.62,5.62,0,0,0,1.87-5.35l-5.95-49.53a5.63,5.63,0,0,0-5.18-4.95Z"/><path class="cls-45" d="M99.12,316.82a18.4,18.4,0,0,0-5.32.27,5.51,5.51,0,0,0-1.79.72s4.26-1,5.87,2.6c1,2.19,1.47,7,1.7,9.45.67,6.89,4.79,49.74,4.79,49.74.31,3.61,3,6.33,6.25,6.25l122.27-3.22a4.15,4.15,0,0,0,2.51-.9,5.66,5.66,0,0,0,1.87-5.35L230,323.18a5.6,5.6,0,0,0-5.17-4.94Z"/><path class="cls-46" d="M237.27,376.38,230,323.18a5.6,5.6,0,0,0-5.17-4.94l-125.7-1.42a18.4,18.4,0,0,0-5.32.27,5.51,5.51,0,0,0-1.79.72s4.26-1,5.87,2.6a10.12,10.12,0,0,1,.42,1.22c12.27.61,24.46.38,36.59,1.3,23.77,1.75,47.54,2,69.49,11.78,7,3.11,11.74,14.13,9.85,19.2-1.36,3.66-6,3.36-7.63,8.17-1.71,5.06,2.39,8.5.67,12.05-1.8,3.73-7.29,2-16.19,4.66A42.57,42.57,0,0,0,180,384l52.88-1.39a4.15,4.15,0,0,0,2.51-.9A5.66,5.66,0,0,0,237.27,376.38Z"/><path class="cls-47" d="M179.75,392.87l-15.31,3.85-1.62.15a3.06,3.06,0,0,1-3.12-3.17L159,375.8a3.19,3.19,0,0,1,2.87-3.5l1.63,0,15.4,2c1.46,0,2.7-.82,2.76.95l.63,16.7C182.38,393.65,181.21,392.74,179.75,392.87Z"/><path class="cls-48" d="M180.91,395.33l-17,1.53a3.06,3.06,0,0,1-3.12-3.17l-.67-17.9A3.18,3.18,0,0,1,163,372.3l17-.28a3.05,3.05,0,0,1,2.78,3.16l.62,16.7A3.16,3.16,0,0,1,180.91,395.33Z"/></g></g></svg>